/* XPM */
static char *_5f998f82e8a4975fa900e688ab2e1e9SSlbAxN9chcUCVz6[] = {
/* columns rows colors chars-per-pixel */
"64 64 138 2 ",
"   c #010101",
".  c #0E0507",
"X  c #0B0708",
"o  c #0A0909",
"O  c #12070A",
"+  c #130A0C",
"@  c #180B0F",
"#  c #150E10",
"$  c #1C0D12",
"%  c #171717",
"&  c #1E1719",
"*  c #1C1C1C",
"=  c #200F13",
"-  c #290F16",
";  c #241016",
":  c #201619",
">  c #2C141B",
",  c #231A1D",
"<  c #34171F",
"1  c #3B161F",
"2  c #2C1F23",
"3  c #351821",
"4  c #3A1F27",
"5  c #222222",
"6  c #2F2024",
"7  c #2C2C2C",
"8  c #34252A",
"9  c #3A292E",
"0  c #3D2C31",
"q  c #343434",
"w  c #3B3B3B",
"e  c #444344",
"r  c #4C4C4C",
"t  c #535353",
"y  c #595957",
"u  c #5B5B5B",
"i  c #636363",
"p  c #676969",
"a  c #6C6C6C",
"s  c #706F6F",
"d  c #6F6F70",
"f  c #6F7171",
"g  c #747474",
"h  c #787777",
"j  c #7B7B7B",
"k  c #BA4363",
"l  c #BC4867",
"z  c #B94968",
"x  c #C44769",
"c  c #CD4A6D",
"v  c #D64D72",
"b  c #DD4F75",
"n  c #CB5B7B",
"m  c #D65175",
"M  c #DE5076",
"N  c #DE567A",
"B  c #D35D7F",
"V  c #E15279",
"C  c #ED557E",
"Z  c #EA587F",
"A  c #7F807F",
"S  c #7F7F80",
"D  c #807F80",
"F  c #EE5780",
"G  c #EB5A81",
"H  c #DC6184",
"J  c #E5658A",
"K  c #EA678D",
"L  c #EC698F",
"P  c #F06A8F",
"I  c #F26B91",
"U  c #FC6D96",
"Y  c #FC7097",
"T  c #FE7198",
"R  c #848484",
"E  c #8B8B8B",
"W  c #908F8F",
"Q  c #8F908F",
"!  c #8E8E90",
"~  c #939494",
"^  c #979897",
"/  c #989897",
"(  c #9B9B9B",
")  c #9FA09F",
"_  c #A0A09E",
"`  c #9F9FA0",
"'  c #A3A3A3",
"]  c #A7A8A7",
"[  c #A8A8A7",
"{  c #A8A8A8",
"}  c #ABABAB",
"|  c #AFAFAF",
" . c #B0B0AF",
".. c #AFAFB0",
"X. c #B0AFB0",
"o. c gray69",
"O. c #B3B3B3",
"+. c #B6B6B6",
"@. c #B8B7B7",
"#. c #B7B7B8",
"$. c #B8B8B8",
"%. c #BBBBBB",
"&. c #BEBFBF",
"*. c #CA8C9E",
"=. c #D392A5",
"-. c #DB96AA",
";. c #DB98AC",
":. c #E39DB2",
">. c #FB9BB6",
",. c #FB9FB9",
"<. c #EAA2B7",
"1. c #EBA4B9",
"2. c #F2A7BC",
"3. c #F5A8BF",
"4. c #BFC0BF",
"5. c #BFBFC0",
"6. c #FFAEC6",
"7. c #FCB1C6",
"8. c #C2C2C3",
"9. c #C5C5C5",
"0. c #C7C8C7",
"q. c #CACACA",
"w. c #CCCCCC",
"e. c #CFD0D0",
"r. c #D2D2D2",
"t. c #D4D4D4",
"y. c #D5D5D5",
"u. c #D8D8D7",
"i. c #D8D8D8",
"p. c #DBDBDB",
"a. c #DFDFDF",
"s. c #DFE0E0",
"d. c #E4E4E4",
"f. c #E6E6E6",
"g. c #E8E7E7",
"h. c #EEEEEE",
"j. c #F2F2F2",
"k. c #F9F9F9",
/* pixels */
"| r.o.+.| $.+.+.| ( E ' ' ( h i u R w a o.' p i i a d u r.y.h 9.o.( u ^ ( &.&.a u t r h w ~ ' i i R E R ^ ' i { ' h R h p e e i ",
"| h g E ~ ( ^ ( ^ E g o.r.a.u.$.E E E q.^ i u h h R E R y.h.q.+.+.R r E | r.r.w.&.o.j g i ^ h i R E E j R ( h g ~ E u q e t R 9.",
"R E ' { ' ( E E E j e +.k.k.y.0.&.q.&.8.j i a R R ~ E E $.$.' ~ o.h y h R R ~ _ ( ' ( ( { +.R ~ ( Q E h h ^ R r R E ^ j i g +.+.",
"( ~ ' { ~ ^ j ^ E j e o.k.( E A R ' j | ' g R E E R R R o.| E t ( E p ^ j E E ( R h j ( r.| ( ( ^ E R g i h p t { #.+.E t ( h.' ",
"E R ~ ' ~ j h ( ^ R e &.y.E R h g E h R @.8.j p h R E ~ { | E t E ' E R g j E ( ( j p o.i.( ^ ~ E R g t t r t ^ q.9.( h R g.g.( ",
"R S a h ~ E ~ | ' R r y.y.j h a p R ( ~ ~ q.( u i p ~ | +.$.( i R ' +.( j h R ( ^ h i f.o.( ~ E R h i t e h +.r.+.h R ^ t f.i.' ",
"h a g h | | ' { { E t i.y.E S h p E { | p { o.h R ' +.+.' ( ' R i ^ &.+.{ ~ R ( E R E u.^ E E R R u w e ~ f.h.' E ~ ' ' w y.r.' ",
"^ i i h E ^ ( { ' R t r.q.E R h i j ( ' E a o.( ~ { | ' E h ~ R t 9.f.r.r.q.o.+.^ E o.( E j R h i 7 r ' y.q.E E ( ( ' ~ r $.r.w.",
"r.$.' g t u R ~ E h u y.q.E j a p h ~ ( E u ' ' 9.w.' E R i h R t a.{ ^ E ( ' 8.~ g ( g i t r r e r h 8.( E E ~ ~ E ( E y o.i.y.",
"8.| 8.w.&.^ h t u u i 9.9.R h g h R ~ ' ( r ( ^ { i.$.j g p h R t q.' ( ^ ( ' ' h g R j h j g h p h ( 9.' h R E h j E ^ r { 9.q.",
"g g ~ $.9.q.w.$.~ a R $.o.R E E ~ ' ' ' R r ' ( ' 9.( ( j t g g t 9.( ^ E ~ ( E t g R ( 8.r.$.( j R &.i.r.&.E R R E E ~ w o.9.( ",
"u i p h h E $.| ' ~ ^ o.' h E ( ( { { ( p u | ^ E ~ E E o.~ u u p w.^ E E E E h w i ~ r.y.w.( j h R { 8.w.w.e.&.R j h i u $.+.i ",
"t u p g h h ~ R h h ^ ' h h E ( ( { { ' p j q.| W R ~ h o.o.{ ( ( r.E E R R R q u h { &.' ( R R ~ ' w.&.( ^ | r.w.$.a r E ' ( t ",
"a i i i a a E E j i ( o.o.| E E ~ ^ ( E h E w.w.~ E E R ( R ] $.w.q.E a p s q t E o.{ ' ^ E E ( ' ' q.&.&.' R &.8.$.h R ( | E g ",
"h h g i a j ( ' j t { 8.u.&.| ( R ^ ( R R E 4.q.~ ~ ~ E ' ' E j o.&.{ j t e u ! o.' | &.~ E E ' ' ( +.9.+.E i ( +.{ ' ( E $.g g ",
"D R E E E ~ ( ( E a $.g.j.a.{ ~ R a R h R R | q.( ' ( E ~ ^ ( / g E E h h h E | ^ ( o.$.+.~ ~ ' ( ( ( $.( p h ~ 8.^ ~ ^ ( +.h g ",
"h E ^ ( E ~ E ( ~ g w.s.&.8.y.o.^ j g i E ~ ( q.^ ( Q S h E ( ( R u g h j ^ +.w.' R ^ +.5.o.^ ^ ^ ( ^ ' R u E ( w.~ h ' q.$.h i ",
"j R E ^ R R R ~ ~ g 9.y.{ ' { ' &.&.y.i.y.o.( w.( ^ E h R (               X X w &.E ^ $.8.$.$.~ E ~ ^ R a g | $.' ^ ' h 8.8.+.g ",
"E ( ( ^ R h ( ) ' h $.$.E ^ ` ( ' ( &.+.q.' E { ( E h h E |             X o   w 9.| ( ( o.| &.&.{ E R p t R ( &.R R +.~ E ( ' ( ",
"R R E ^ R S ' ' ( h ^ ~ E ( E h j R ( ( E (     o         : 6.6.6.:.  & 7.6.6.<.      7 ^ ' +.+.$.( g t a ( { q.R R { { E R w.y.",
"{ E R E ^ ( ' ' ^ a h R { ' h g h R ^ h u E   X o         : 6.6.6.:.  , 6.6.6.<.      7 E ~ { { ~ R i E ^ ( | ( E ~ ' o.' h ' s.",
"w.j i u u p u u u u g o.8.( g h           2 7.7.6.6.6.;.  = T T T J   @ T J   + T T 6.1.o 7 E ~ h u ^ $.$.| ( ( ~ ~ ^ $.q.+.R ' ",
"i.&.^ E | ' E h R o.w.a.a.R p a           8 7.6.6.6.6.;.  = T T T J   @ T J   + T T 6.1.o 5 h h t R o.$.$.E ( ( ^ ^ ( o.$.' ~ a ",
"j.f.9.8.w.q.q.w.i.g.a.w.      3 T n   6 6.=.  > T H   ; T T T T T U C v   @ T U C F Y L       % E | &.+.R ~ o.' ( ( ( R ~ g t a ",
"f.^ E ~ { $.&.9.r.$.~ '       3 T n   6 6.=.  > T H   ; T T T T T U C v   @ T U C F T L       5 ( &.r.^ R R +.| ( ( ^ u t a ' j.",
"^ ( E E ( o.8.8.{ ( E R   9 6.*.  < T T T T T T T T T U C G G C C v       @ T U C b   + 6.6.T I   q ^ ( ~ E o.+.~ E i t | a.k.9.",
"E R h E ' $.| ( ( R ~ {   9 6.*.  4 T T T T T T T T T U Z G C C C v       @ Y U C b   + 6.6.T I   7 ' R R R ' ' j h i a w.f.$.~ ",
"a h h R ~ E E E E E   0 6.>.C k X o   > T B   - C c   X           $ T T 6.6.T T T T T U C C C V   o o 7 ( f i R h R g i q.f.{ h ",
"a u a R h g R R R E   0 6.>.C l o     > T B   - C c o o           $ T T 6.6.T T T T T U C C C V X X   5 $.o.' ( h h g h 8.i.8.{ ",
"| ' E R i i a R E ~   1 C k X 9 6.6.6.,.C x       o o , 6.6.6.:.  # T T T T T K   O T L       + T T 6.3.  5 ' &.q.| ~ j ( ' +.o.",
"+.{ ^ E u e t h E E   1 C z o 8 6.6.6.,.C x     o o   , 6.6.6.:.  # Y T Y T T K   O T L     o # T T 6.3.  % ' 9.9.$.~ h E ^ ^ ' ",
"' ( h ^ j i a h h h R ~ o o   8 6.,.C x   2 6.6.6.-.  , 6.6.T U C C G m       O C F T T T T 7.2.          * o.^ a u u a o.{ j ^ ",
"..( u ^ ( &.&.a u t r R o     8 6.,.C x   2 6.6.6.-.  , 6.6.T U C G G v       O C F T T T T 6.2.          5 p i i a d u r.y.h 9.",
"+.R r E | r.r.w.&.o.j g p (               > T T T T T T T H     X o   @ T T 6.6.T L   O T P   o 6.6.6.3.  % u h h R E R y.h.q.+.",
"o.h y h R R ~ _ ( ' ( ( { $.            X > T T T T T T T H           @ T T 6.6.T L   O T P   o 6.6.6.3.  % a R R ~ E E $.$.' ~ ",
"( E p ^ j E E ( R h j ( r.| ( ( ^ E R h X - C C C C C c   : 6.6.6.6.6.:.      + T T T L   . T T T T T I   % R E E R R R o.| E t ",
"E ' E R g j E ( ( j p o.i.( ^ ~ E R g u   - C C C C C c   : 6.6.6.6.6.:.      + T T T L   . T T T T T I   5 j p h R E ~ { | E t ",
"R ' +.( j h R ( ^ h i f.o.( ~ E R h i t e R             o = C C C C C C C C C Z G C C M   . C C C V   * ~ q.( u i p ~ | +.$.( i ",
"i ^ &.+.{ ~ R ( E R E y.^ E E R R u w e ~ f.        X o o $ C C C C C C C C G Z C C C M   . C C C V X 5 p { o.h R ' +.+.' ( ' R ",
"t 9.f.r.r.q.o.+.^ E o.( E j j g i 7 r ' y.q.E E ( ( ' ~ r $.              o X                   o 5 ( ' E a o.( ~ { | ' E h ~ R ",
"t a.{ ^ E ( ' 8.~ g ( g i t r r e r h 8.( E E ~ ~ E ( E u o.            o o                   o X * ~ ( ! u ' ' 9.w.' E R i h R ",
"t q.' ( ^ ( ' ' h g R j h j g h p h ( 9.' h R E h j E ^ r { 9.q.8.| 8.w.&.^ h t   O C C C M o * h R ~ ' ( r ( ^ { i.$.j g p h D ",
"t 9.( ^ E ~ ( E t g R ( 8.r.$.( j R &.i.r.&.E R R E E ~ w o.9.( g g ~ $.9.q.w.$.  O C C C N X * ~ ' ' ' R r ' ( ' 9.( ( j t g g ",
"p w.^ E E E E h w i ~ r.y.w.( j h R { 8.w.w.e.&.R j h i u $.+.i u i p h h E $.| ' ^   O G G T I   7 { ( p u | ^ E ~ E E o.~ u u ",
"( r.E E R R R q u h { &.' ( R R ~ ' w.&.( ^ | r.w.$.a r E ' ( r t u p g j h ~ R h j   # G C T I   7 { ' p j q.| W R ~ h o.o.{ ( ",
"w.q.E a p s q t E o.{ ' ^ E E ( ' ' q.&.&.' R &.8.$.h R ( | E g a i i i a d E E j i ( +.          7 ( E h E w.w.~ E E R ( R ] $.",
"o.&.{ j t e u ! o.' | &.~ E E ' ' ( +.9.+.E i ( +.{ ' ( E $.g g h h g i d j ( ' j t { 8.          7 ( R R E 4.q.~ ~ ~ E ' ' E j ",
"g E E h h h E | ^ ( o.$.+.~ ~ ' ( ( ( $.( p h ~ 8.^ ~ ^ ( +.h g R R E E ~ ~ ( ( E a $.g.j.a.{ ~ R a R h R R | q.( ' ( E ~ ^ ( / ",
"R u g h j ^ +.w.' R ^ +.5.o.^ ^ ^ ( ^ ' R u E ( w.~ h ' q.$.h i h E ^ ( E ~ E ( ~ g w.s.&.8.y.o.^ j g i E ~ ( q.^ ( Q R h E ( ( ",
"g e R ' | &.a.i.&.E ^ $.8.$.$.~ E ~ ^ R a g | $.' ^ ' h 8.8.+.g j R E ^ R R R ~ ~ g 9.y.{ ' { ' &.&.y.i.y.o.( w.^ ^ E h R ^ ( ( ",
"g i 9.q.&.j ( 9.9.| ( ( o.| &.&.{ E R p t R ( &.R R +.~ E ( { ( E ( ( ^ R h ^ ( ' h $.$.E ^ ` ( ' ( &.+.q.' E { ( E h h E { | ( ",
"w E y.k.' E ^ E &.q.o.^ ^ ' +.+.$.( g t a ^ { q.j R { { E R w.y.R R E ^ R R ' ' ( h ^ ~ E ( E h j R ( ( E ^ E R E j h R ( | +.( ",
"u $.r.$.( ( ( ' ~ w.q.~ E ~ { { ~ R i E ^ ( o.( E ~ ' o.' h ' s.{ E R E ^ ( ' ' ^ a h R { ' h g h R ^ h u R E a ( ~ ~ ` | ' ' i ",
"' a.r.^ ( ^ ( o.~ ~ q.| R R E ~ h u ^ $.$.| ( ( ~ ~ ^ $.q.+.R ' w.j i u u p u u u u g o.8.( g i i h R a e ~ E j E ( ' ' ( ~ E w ",
"f.i.~ E E j ~ ' ( g ' | X.E h h t R o.$.$.E ( ( ^ ^ ( o.$.' ~ a i.&.^ E | ' E h R o.w.a.a.R p u u h E h r +.h h g E | t e w r R ",
"f.' E E R g j ^ E R a ^ +.' u u E | &.+.R ~ o.' ( ( ( R ~ g t a j.f.9.8.w.q.q.w.i.g.a.w.9.a r t p E ' R t ' i i u t r t ( o.&.r.",
"8.E E R h p g R R R R h ' o.^ E ( &.r.^ R R +.| ( ( ^ u t a ' j.f.^ E ~ { $.&.9.r.$.~ ( 8.' h E ' | { R t ( ' ( +.9.w.y.i.8.o.&.",
"| R E E h p h ( E R R W a $.' ( ~ &.^ ( ~ E o.+.~ E i t | a.k.9.^ ( E E ( o.8.8.{ ( E j ' y.( | 8.o.E h t ~ i.f.g.y.+.E j j E o.",
"' R h R j j ^ { ^ ~ R E u 8.+.+.' r.' R R R ' ' j h u a w.f.$.~ E R h E ' $.| ( ( R ~ ' j i.&.' ' ' u e i +.g.+.~ R R h h j r ' ",
"( ( i g j R ^ ' ^ R h h p 8.q.E h { 8.9.( f i R h R g i q.f.{ h a h h R ~ E E E E R E ..( ( &.h j t p ' o.w.{ ( ( ( ( ~ R h e j ",
"^ { p a h D E E ^ R h t ( y.{ j (  .( ( $.o.' ( h h g h 8.i.8.{ a u a R h g R R R R E $.' p ' o.$.' f.9.| r.o.E E E E E ^ ~ i i ",
"8.| h i h h R E ~ j u h w.8.a R ' ( ( | R R ' &.q.| ~ j ( ' +.o.| ' E R i i a R E E E { ^ t ( q.g.k.&.R p &.y.^ E E R j E E R t ",
"w.8.E t t u s R R h e [ r.E p ^ ' ( ( ^ h u ' 9.9.$.~ h E ^ ^ ' +.{ ^ E u e t h E R E ^ R e { y.9.^ R R p ( h.q.R R R h R E E t ",
"+.9.' E a p u r e r a o.' t h E E h j r w R o.^ a u u a o.{ S ^ ' ( h ^ j i a h h h R E e p &.^ h E ~ ^ E i ( 9.( h R R R h E i "
};
