/* XPM */
static char *e1f3bf5363d249b1944fcba58ed0f9c5KRi0MYGvo0Oyvnfm[] = {
/* columns rows colors chars-per-pixel */
"64 64 196 2 ",
"   c None",
".  c black",
"X  c #010000",
"o  c #010100",
"O  c #010001",
"+  c #010101",
"@  c #020202",
"#  c gray1",
"$  c #040404",
"%  c gray2",
"&  c #060606",
"*  c #070707",
"=  c #0E0507",
"-  c #080708",
";  c #0E0609",
":  c #0F0709",
">  c gray3",
",  c #090909",
"<  c #0A0909",
"1  c gray4",
"2  c #0B0B0B",
"3  c #0E0A0B",
"4  c #0C0C0C",
"5  c gray5",
"6  c #0E0E0E",
"7  c gray6",
"8  c #110609",
"9  c #12070A",
"0  c #13070A",
"q  c #12080B",
"w  c #12090B",
"e  c #14090C",
"r  c #15090C",
"t  c #15090D",
"y  c #110D0E",
"u  c #140D0F",
"i  c #180A0E",
"p  c #180B0E",
"a  c #180B0F",
"s  c #190B0F",
"d  c #150E10",
"f  c #1E0B10",
"g  c #180E10",
"h  c #1C0D12",
"j  c #111111",
"k  c gray8",
"l  c #151515",
"z  c #161616",
"x  c #1E1719",
"c  c #210E13",
"v  c #200F13",
"b  c #280E15",
"n  c #280E16",
"m  c #2A0F16",
"M  c #2A0F17",
"N  c #241016",
"B  c #201619",
"V  c #201719",
"C  c #2A131A",
"Z  c #2C141B",
"A  c #2E141C",
"S  c #211A1C",
"D  c #241A1D",
"F  c #34171F",
"G  c #3B151F",
"H  c #2C1F23",
"J  c #351820",
"K  c #351821",
"L  c #3A1F27",
"P  c #2E2024",
"I  c #2F2024",
"U  c #302528",
"Y  c #35252A",
"T  c #39292E",
"R  c #3B292E",
"E  c #3D2C31",
"W  c #B84262",
"Q  c #BC4464",
"!  c #BC4867",
"~  c #B94968",
"^  c #C34668",
"/  c #C54769",
"(  c #C64769",
")  c #CB496C",
"_  c #CE4A6D",
"`  c #D54C71",
"'  c #D74D72",
"]  c #DD4F75",
"[  c #CB5A7B",
"{  c #CB5B7B",
"}  c #D65175",
"|  c #DE5076",
" . c #DE5077",
".. c #DE567A",
"X. c #D35D7F",
"o. c #E05178",
"O. c #E15178",
"+. c #E25179",
"@. c #E0557B",
"#. c #EA567E",
"$. c #EC557E",
"%. c #ED557E",
"&. c #EE567F",
"*. c #E9587F",
"=. c #EA587F",
"-. c #EE5780",
";. c #EB5880",
":. c #EA5980",
">. c #EB5980",
",. c #EB5981",
"<. c #EA5A81",
"1. c #EB5A81",
"2. c #EB5B81",
"3. c #EB5B82",
"4. c #EC5A81",
"5. c #DA6082",
"6. c #DE6286",
"7. c #E26488",
"8. c #E26489",
"9. c #E7668B",
"0. c #EA678C",
"q. c #EA678D",
"w. c #EA6A8E",
"e. c #EC688D",
"r. c #EC688E",
"t. c #EC698F",
"y. c #ED698F",
"u. c #F06A8F",
"i. c #F06A91",
"p. c #F16A91",
"a. c #F46C92",
"s. c #FB6C95",
"d. c #FC6C95",
"f. c #FC6D95",
"g. c #FC6E96",
"h. c #FD6E96",
"j. c #FB7097",
"k. c #FC7097",
"l. c #FD7097",
"z. c #FA7298",
"x. c #FB7298",
"c. c #FB7399",
"v. c #FD7098",
"b. c #FC7198",
"n. c #FE7098",
"m. c #FC7298",
"M. c #FC7299",
"N. c #FC7399",
"B. c #FD739A",
"V. c #FE739A",
"C. c #FB7499",
"Z. c #FB749A",
"A. c #FC7499",
"S. c #FC749A",
"D. c #FE749B",
"F. c #FE759B",
"G. c #FE759C",
"H. c #FE769C",
"J. c #CA8C9E",
"K. c #D392A4",
"L. c #D392A5",
"P. c #DA96A9",
"I. c #DB96AA",
"U. c #DA98AC",
"Y. c #DB98AC",
"T. c #E19CB0",
"R. c #E29DB2",
"E. c #E69FB3",
"W. c #E79FB4",
"Q. c #FB9BB6",
"!. c #FB9EB8",
"~. c #FB9FB9",
"^. c #EAA2B7",
"/. c #EAA4B8",
"(. c #ECA4B9",
"). c #F1A6BB",
"_. c #F2A7BC",
"`. c #F5A8BE",
"'. c #F5A8BF",
"]. c #FBABC2",
"[. c #FEA8C0",
"{. c #FEAAC2",
"}. c #FEABC3",
"|. c #FFABC3",
" X c #FFACC3",
".X c #FFACC4",
"XX c #FDAEC4",
"oX c #FDAEC5",
"OX c #FDAFC5",
"+X c #FEAEC5",
"@X c #FEAFC5",
"#X c #FEAFC6",
"$X c #FFAFC6",
"%X c #FCB1C5",
"&X c #FCB0C6",
"*X c #FCB1C6",
/* pixels */
"                                                                                                                                ",
"                                                                                                                                ",
"                                                                                                                                ",
"                                                                                                                                ",
"                                                                                                                                ",
"                                                                                                                                ",
"                                                                                                                                ",
"                                                                                                                                ",
"                                                                                                                                ",
"                                                                                                                                ",
"                                                                                                                                ",
"                                                                                                                                ",
"                                                                                                                                ",
"                                                                                                                                ",
"                                                                                                                                ",
"                                                                                                                                ",
"                                                                                                                                ",
"                                                                                                                                ",
"                                                                                                                                ",
"                                                              . . . . . . . * * k                                               ",
"                                                              . . . . . . * , . k                                               ",
"                                              . . * . . . . B $X$X$XT.. x *X$X$X^.. . . j                                       ",
"                                              . - , . . . . B $X$X$XT.. S $X$X$X^.. . . j                                       ",
"                                  . . . . . H *X*X$X$X$XY.. v n.n.n.8.. a n.9.. t n.S.$X(., k                                   ",
"                                  . . . . . U *X$X$X$X$XY.. v n.n.n.8.. a n.9.. t n.S.$X/., 4                                   ",
"                          . . . J n.[ . P $XL.. C n.5.. N n.n.n.n.n.d.$.' . a n.d.$.-.l.w.. . . 4                               ",
"                          . . . J n.[ . P $XL.. C n.5.. N n.n.S.n.n.d.$.' . a n.d.$.-.n.r.. . . 4                               ",
"                          . T $XJ.. F n.n.n.n.n.n.n.n.n.d.$.1.1.$.$.' . . . a n.d.$.] . y $X$Xn.p.. 4                           ",
"                          . T $XJ.. L n.n.n.n.n.n.n.n.n.s.=.1.$.$.$.' . . . a l.d.$.] . y $X Xn.p.. 4                           ",
"                      . E $XQ.$.Q * , . A n.X.. n $.) . * . . . . . h n.H.$X[.c.n.n.n.n.d.$.$.$.+.. , , ,                       ",
"                      . E $XQ.$.! , . . A n.X.. n $.) , , . . . . . h n.H.$X].c.n.n.n.n.d.$.$.$.+.* * . ,                       ",
"                      . G $.W * T $X$X$X~.$./ . . . , , D $X$X$XT.. h n.n.Z.c.n.q.. q n.r.. . . u Z.n.$X'.. ,                   ",
"                      . G $.~ , Y $X$X$X~.$./ . . , , . D $X$X$XT.. h l.S.j.n.n.q.. q n.r.. . , d n.n.$X'.. ,                   ",
"                          , , . Y $X~.$.^ . H $X$X$XP.. D $X[.n.d.$.$.1.} . . . 0 $.-.n.n.n.Z.*X).. . . . . ,                   ",
"                          , . . Y $X~.$.^ . H $X$X$XP.. D $X[.n.d.$.1.1.' . . . 0 $.-.n.n.n.n.$X_.. . . . . ,                   ",
"                              . . . . . . . Z n.n.n.n.n.n.n.6.. . - , . a n.H.$X[.n.r.. q n.u.. 3 $X$X$X'.. ,                   ",
"                              . . . . . . * Z n.n.n.n.n.n.n.6.. . . . . a n.H.$X[.n.r.. q n.u.. 3 $X$X$X'.. ,                   ",
"                                          * n $.$.$.$.$._ . B $X$X$X$X$XE.. . . t n.Z.n.r.. : n.n.n.n.n.a.. ,                   ",
"                                          . n $.$.$.$.$._ . B $X$X$X$X$XW.. . . t c.c.n.r.. : n.n.n.n.n.a.. ,                   ",
"                                              . . . . . . , v $.$.$.$.$.$.$.$.$.=.1.$.$.| . = $.$.$.+.. ,                       ",
"                                              . . . . . , , f $.$.$.$.$.$.$.$.1.#.$.$.$.| . = $.$.$.@.* ,                       ",
"                                                              . . . . . . . , - . . . . . . . . . , j                           ",
"                                                              . . . . . . , , . . . . . . . . . , * 4                           ",
"                                                                                  . 0 $.$.$.| , 4                               ",
"                                                                                  . 0 $.$.$...* 4                               ",
"                                                                                      . 0 1.4.n.p.. 4                           ",
"                                                                                      . g 1.$.n.p.. 4                           ",
"                                                                                          . . . . . 4                           ",
"                                                                                          . . . . . 4                           ",
"                                                                                                                                ",
"                                                                                                                                ",
"                                                                                                                                ",
"                                                                                                                                ",
"                                                                                                                                ",
"                                                                                                                                ",
"                                                                                                                                ",
"                                                                                                                                ",
"                                                                                                                                ",
"                                                                                                                                ",
"                                                                                                                                ",
"                                                                                                                                ",
"                                                                                                                                ",
"                                                                                                                                ",
"                                                                                                                                "
};
