/* XPM */
static char *_d63a8edbc8e44cceb89b9562b402533brMzfsMoPQDw4u2O[] = {
/* columns rows colors chars-per-pixel */
"64 64 226 2 ",
"   c #040101",
".  c #0C0001",
"X  c #0D0A0B",
"o  c #0C0608",
"O  c #140002",
"+  c #1B0001",
"@  c #12060A",
"#  c #1D030B",
"$  c #150B0D",
"%  c #1D0C0F",
"&  c #0C100F",
"*  c #1B0C11",
"=  c #170E11",
"-  c #151514",
";  c #240001",
":  c #2B0002",
">  c #24030B",
",  c #2C070F",
"<  c #330001",
"1  c #3A0001",
"2  c #34000A",
"3  c #3C000B",
"4  c #2A0B13",
"5  c #360510",
"6  c #370915",
"7  c #2A161A",
"8  c #34151C",
"9  c #38121B",
"0  c #361922",
"q  c #3F1320",
"w  c #222021",
"e  c #3E2328",
"r  c #440000",
"t  c #490000",
"y  c #43000C",
"u  c #4C000A",
"i  c #53000A",
"p  c #5A000F",
"a  c #420113",
"s  c #430D1A",
"d  c #4C071A",
"f  c #530012",
"g  c #520219",
"h  c #5F011C",
"j  c #451421",
"k  c #4A1827",
"l  c #5B1E2E",
"z  c #462029",
"x  c #4C2A33",
"c  c #522230",
"v  c #914C61",
"b  c #8F5665",
"n  c #995B6B",
"m  c #975F6C",
"M  c #B0566F",
"N  c #AD5B72",
"B  c #BD5472",
"V  c #AA556C",
"C  c #8B6270",
"Z  c #98727B",
"A  c #976775",
"S  c #A66475",
"D  c #A56C7A",
"F  c #AD667A",
"G  c #BC647D",
"H  c #B5687C",
"J  c #CD4F75",
"K  c #CA5E7D",
"L  c #C45F7D",
"P  c #D8567D",
"I  c #C2647E",
"U  c #CA617F",
"Y  c #9C7B86",
"T  c #B56C81",
"R  c #BD6B83",
"E  c #BA6781",
"W  c #AC7484",
"Q  c #B47385",
"!  c #BB7386",
"~  c #B8778B",
"^  c #DB5C82",
"/  c #D75B80",
"(  c #E35C85",
")  c #E85D86",
"_  c #C36783",
"`  c #CB6683",
"'  c #C36B84",
"]  c #CB6985",
"[  c #CC6E89",
"{  c #C76F88",
"}  c #D46384",
"|  c #DD6186",
" . c #DC668A",
".. c #D26D8A",
"X. c #DB6D8A",
"o. c #C6778D",
"O. c #CB748C",
"+. c #C4758A",
"@. c #D7738F",
"#. c #CB7D93",
"$. c #C97690",
"%. c #DD7594",
"&. c #D27C95",
"*. c #DA7C97",
"=. c #DD7E9A",
"-. c #D47E99",
";. c #ED6F95",
":. c #FE6B97",
">. c #F86D96",
",. c #E47495",
"<. c #EB7296",
"1. c #E37996",
"2. c #EE759A",
"3. c #E47C9A",
"4. c #EB7C9C",
"5. c #E67798",
"6. c #F6759B",
"7. c #FE739D",
"8. c #F17A9D",
"9. c #F27096",
"0. c #E56389",
"q. c #EE7FA0",
"w. c #FE7CA3",
"e. c #F47EA0",
"r. c #B78894",
"t. c gray75",
"y. c #C18596",
"u. c #CE8195",
"i. c #CB859A",
"p. c #C58B9C",
"a. c #CB8A9C",
"s. c #C6859B",
"d. c #D18196",
"f. c #D7859C",
"g. c #DB839C",
"h. c #D3899D",
"j. c #C2949E",
"k. c #E2829E",
"l. c #EA809F",
"z. c #CB8DA1",
"x. c #C499A3",
"c. c #CA94A4",
"v. c #D499A9",
"b. c #D990A4",
"n. c #DF9EB2",
"m. c #E583A0",
"M. c #E28AA3",
"N. c #EB83A1",
"B. c #F193AE",
"V. c #EA9FB3",
"C. c #F598B3",
"Z. c #C2A4AC",
"A. c #CCA9B2",
"S. c #D7ABB6",
"D. c #C7B6BB",
"F. c #DFB5BF",
"G. c #E5ADBB",
"H. c #E9A7BA",
"J. c #FAA4BC",
"K. c #E6B3BF",
"L. c #CABEC2",
"P. c #C7BCC0",
"I. c #D4B7C1",
"U. c #DBB7C3",
"Y. c #E4AFC1",
"T. c #FFA3C2",
"R. c #F3ADC1",
"E. c #FCACC4",
"W. c #FFADC9",
"Q. c #E4B3C0",
"!. c #EAB5C4",
"~. c #E2BBC6",
"^. c #ECBAC5",
"/. c #EBBDCA",
"(. c #E6BCC8",
"). c #F4B3C5",
"_. c #FBB2C6",
"`. c #FEB4CA",
"'. c #F3BBCA",
"]. c #F6BACB",
"[. c #CAC7C8",
"{. c #D4C8CA",
"}. c #CED0CF",
"|. c #DACBD0",
" X c #DAD4D4",
".X c #F2C3CF",
"XX c #F9C1CE",
"oX c #F6C1D1",
"OX c #E5D6D9",
"+X c #EFD2D7",
"@X c #EDEEEC",
"#X c #E4EAE6",
"$X c #FDE6EB",
"%X c #F3EAED",
"&X c #F1F0EE",
"*X c #F4F6F5",
"=X c #FCF5F6",
"-X c #F5F9F6",
";X c #FEF6FA",
":X c #F5FDFB",
">X c #FEFAFD",
",X c #F9FFFF",
"<X c #F8FFFF",
"1X c #FBFFFF",
"2X c #FAFFFE",
"3X c #FAFEFD",
"4X c gray99",
"5X c #FDFDFD",
"6X c #FFFCFD",
"7X c #FCFFFD",
"8X c #FEFFFD",
"9X c #FFFFFD",
"0X c #FFFEFD",
"qX c #FFFDFE",
"wX c #FFFCFF",
"eX c #FFFDFF",
"rX c #FEFCFF",
"tX c #FDFFFE",
"yX c #FCFFFF",
"uX c #FEFEFE",
"iX c #FFFEFF",
"pX c #FEFFFF",
"aX c white",
"sX c #FEFEFF",
"dX c #FEFEFE",
"fX c #F9F9F7",
/* pixels */
"aXaXaXaXaXaXaXaXaXaXaXaXaXaXaXaXaXaXaXaXaXaXaXaXaXaXaXaXaXaXaXaXaXaXaXaXaXaXaXaXaXaXaXaXaXaXaXaXaXaXaXaXaXaXaXaXaXaXaXaXaXaXaXaX",
"aXaXaXaXaXaXaXaXaXaXaXaXaXaXaXaXaXaXaXaXaXaXaXaXaXaXaXaXaXaXaXaXaXaXaXaXaXaXaXaXaXaXaXaXaXaXaXaXaXaXaXaXaXaXaXaXaXaXaXaXaXaXaXaX",
"aXaXaXaXaXaXaXaXaXaXaXaXaXaXaXaXaXaXaXaXaXaXaXaXaXaXaXaXaXaXaXaXaXaXaXaXaXaXaXaXaXaXaXaXaXaXaXaXaXaXaXaXaXaXaXaXaXaXaXaXaXaXaXaX",
"aXaXaXaXaXaXaXaXaXaXaXaXaXaXaXaXaXaXaXaXaXaXaXaXaXaXaXaXaXaXaXaXaXaXaXaXaXaXaXaXaXaXaXaXaXaXaXaXaXaXaXaXaXaXaXaXaXaXaXaXaXaXaXaX",
"aXaXaXaXaXaXaXaXaXaXaXaXaXaXaXaXaXaXaXaXaXaXaXaXaXaXaXaXaXaXaXaXaXaXaXaXaXaXaXaXaXaXaXaXaXaXaXaXaXaXaXaXaXaXaXaXaXaXaXaXaXaXaXaX",
"aXaXaXaXaXaXaXaXaXaXaXaXaXaXaXaXaXaXaXaXaXaXaXaXaXaXaXaXaXaXaXaXaXaXaXaXaXaXaXaXaXaXaXaXaXaXaXaXaXaXaXaXaXaXaXaXaXaXaXaXaXaXaXaX",
"aXaXaXaXaXaXaXaXaXaXaXaXaXaXaXaXaXaXaXaXaXaXaXaXaXaXaXaXaXaXaXaXaXaXaXaXaXaXaXaXaXaXaXaXaXaXaXaXaXaXaXaXaXaXaXaXaXaXaXaXaXaXaXaX",
"aXaXaXaXaXaXaXaXaXaXaXaXaXaXaXaXaXaXaXaXaXaXaXaXaXaXaXaXaXaXaXaXaXaXaXaXaXaXaXaXaXaXaXaXaXaXaXaXaXaXaXaXaXaXaXaXaXaXaXaXaXaXaXaX",
"aXaXaXaXaXaXaXaXaXaXaXaXaXaXaXaXaXaXaXaXaXaXaXaXaXaXaXaXaXaXaXaXaXaXaXaXaXaX4X4XaXaXaXaXaXaXaXaXaXaXaXaXaXaXaXaXaXaXaXaXaXaXaXaX",
"aXaXaXaXaXaXaXaXaXaXaXaXaXaXaXaXaXaXaXaXaXaXaXaXaXaXaXaXaXaXaXaXaXaXaXaXaXaXaXaXaXaXaXaXaXaXaXaXaXaXaXaXaXaXaXaXaXaXaXaXaXaXaXaX",
"aXaXaXaXaXaXaXaXaXaXaXaXaXaXaX4XaXaXaXaXaXaXaXaXaXaXaXaXaXaXaXaXaXaXaX4XaXaXaXaXaXaXaXaXaXaXaXaX4XaXaXaXaXaXaXaXaXaXaXaXaXaXaXaX",
"aXaXaXaXaXaXaXaXaXaXaXaXaXaXaX4XaXaXaXaXaXaXaXaXaXaXaXaXaXaXaXaXaXaXaX4XaXaXaXaXaXaXaXaXaXaXaXaXaXaXaXaXaXaXaXaXaXaXaXaXaXaXaXaX",
"aXaXaXaXaXaXaXaXaXaXaXaXaXaXaXaXaXaXaXaXaXaXaXaXaXaXaXaXaXaXaXaXaXaXaXaXaXaXaXaXaXaXaXaXaXaXaXaXaXaXaXaXaXaXaXaXaXaXaXaXaXaXaXaX",
"aXaXaXaXaXaXaXaXaXaXaXaXaXaXaXaXaXaXaXaXaXaXaXaXaXaXaXaXaXaXaXaXaXaXaXaXaXaXaXaXaXaXaXaXaXaXaXaXaXaXaXaXaXaXaXaXaXaXaXaXaXaXaXaX",
"aXaXaXaXaXaXaXaXaXaXaXaXaXaXaXaXaXaXaXaXaXaXaXaXaXaXaXaXaXaXaXaXaXaXaXaXaXaXaXaXaXaXaXaXaXaXaXaXaXaXaXaXaXaXaXaXaXaXaXaXaXaXaXaX",
"aXaXaXaXaXaXaXaXaXaXaXaXaXaXaXaXaXaXaXaXaXaXaXaXaXaXaXaXaXaXaXaXaXaXaXaXaXaXaXaXaXaXaXaXaXaXaXaXaXaXaXaXaXaXaXaXaXaXaXaXaXaXaXaX",
"aXaXaXaXaXaXaXaXaXaXaXaXaXaX2X2XaXaXaXaX-X4XaX4XaX:XaX4XaXaXaXaXaX4X4XaXaXaXaXaXaX2XaX;X;XaX3X:X2X2XaXaXaXaXaXaXaXaXaXaXaXaXaXaX",
"aXaXaXaXaX2XaXaXaXaXaXaXaXaXaXaXaXaX4X4X2XaXaXaX2X2XaX4XaX4XaXaX4X4XaXaX4XaXaXaX2X-XaX=XaX;XaXaX2X2XaXaXaXaXaXaXaXaXaXaXaXaXaXaX",
"aXaXaXaXaXaXaXaXaXaXaXaXaXaXaXaXaX4X4X2X<X2XaX4X:X:XaXaX&XfXaX4XaXaX-X<XaXaXaX-X:X<X3XaX;XaX=XaXaXaXaXaXaXaXaXaXaXaXaXaXaXaXaXaX",
"aXaXaXaXaXaXaXaXaXaXaXaXaXaXaXaXaX=XaX2X<X2XaXaXaX2X4X4XaXaX X.             . X - 2X2XaXaXaXaX;XaXaXaXaXaXaXaXaXaXaXaXaXaXaXaXaX",
"aXaXaXaXaXaXaXaXaXaXaXaXaXaXaX4X;X;XaX2X<X:XaXaX-XaX7X-XaXaXOXO O O .     O > O 7 aX2X:X<X2X2XaXaXaXaXaXaXaXaXaXaXaXaXaXaXaXaX2X",
"aXaXaXaXaXaXaXaXaXaXaXaXaXaX4X4X=XaXfX2X2X2X}.    =         8 (.'.Q.A.. 8 ~.Q.oXA.O     - <X2X:XaXaXaXaXaXaXaXaXaXaXaXaXaXaXaXaX",
"aXaXaXaXaXaXaXaXaXaXaXaXaXaXaXaXaX4XaX2X-XaX{.O # O O .   . , ).`.E.S.+ 9 '.R.E.H.; + O * ;X*X2XaXaXaXaXaXaXaXaXaXaXaXaXaXaXaXaX",
"aXaXaXaXaXaXaXaXaXaXaXaXaXaXaXaX[.        . 0 (.!.^.(.~.Z.+ a g.3.l.! ; 2 a.$.r y f.a.'.S.O w -XaXaXaXaXaXaXaXaXaXaXaXaXaXaXaXaX",
"aXaXaXaXaXaXaXaXaX2X2XaX3XaXaX4X{.O . . O + q '.)._._.).v.: i 8.6.6.[ 1 y a.o.1 i 1.m.W.H.; $ aXaX4X4XaXaX2XaX2XaXaXaXaXaXaXaXaX",
"aXaXaXaXaXaXaX2X2X2X-X2Xt.    . 9 x.Z + j ^.v.: g g.R 1 g g.2.7.:.7.,.{ F ; y g.5./  .%.#.; O   = aXaXaX-X2X-XaXaXaXaXaXaXaXaXaX",
"aXaXaXaXaXaXaX2X2X2X-X4X[.  . + k p.A : d `.b.1 f m...t f 1.w.:.:.>.8.G D ; 3 &.2.( | 1.#.; ; ; # ;XaXaXaX-X2X2XaXaXaXaXaXaXaXaX",
"aXaXaXaXaXaXaX2X:X*XaXaXD.O x (.p.; k p.f.k.g.k.N.1.%.3.k.` / ( 0.| B 1 ; ; : M.;.( J t y R.`.i.r.O % ;X4X-X2X2XaXaXaXaXaXaXaXaX",
"aXaXaXaXaXaXaX2X2X2XaX4XA.+ c !.c.; j y.g.1.l.1.4.3.l.*.#.R { _ G { N : ; ; 3 k.6.) P t u `.T.*.y.+ > 4X4XaXaX-XaXaXaXaXaXaXaXaX",
"aXaXaXaXaXaXaX2X2XaXD.O x '.n.~ b ; > : h 4.L r i [ V < < ; : ; ; ; a b.i._.E.,.<.9.8.l.k._ K ..F ; > O = ;XfXaXaXaXaXaXaXaXaXaX",
"aXaXaXaXaXaXaX2X3XaXD.O k ).H.E n : + ; f =.+.: 3 Q m : ; + + + + ; 2 f.l.T.T.e.4.4.5.5.1.I ] G T 2 : + # 4XaXaXaXaXaXaXaXaXaXaX",
"aXaXaXaXaXaXaXaXaX;XD.O k W v 3 l !.^.].J._ n ; ; + > > 9 ~..XK.A.; y =.4.8.4.5.@.r i 4.X.t 1 < y s.c./.I.  X 2XaXaXaXaXaXaXaXaX",
"aXaXaXaXaXaXaXaXaX4XL.. 0 Y C ; z Q.`.`.C.R n + + > ; O 9 Q._._.V.1 p 4.4.3.g.d.o.1 i 4.,.t < : 3 p.z.!.I.. X 2XaXaX4XaXaXaX2X2X",
"aXaXaXaXaXaXaXaXaXaX;X4XD.O # O z !.V._ N < k Q.^.^.c.; s ].E.&.O.O.K U I 1 < 1 3 G ` 4.,.3.h.'.G.; ; : O   & 2XaXaX4X4XaXaXaX2X",
"aXaXaXaXaXaXaXaXaXaXaXaXP.$   . e (.H.T n ; j ].E.`.M.1 g E.J.M.h.H o.R F : 1 < u I ] 4.4.1.g.).S.O + + O   X -XaX4X4XaXaXaX2X2X",
"aXaXaXaXaXaXaXaXaXaXaX4XaX=XL.  . O + + + + 5 h.3.<.8.q.=.f.&.1 : < : ; 2 r.a.`.J.*.%.t i m.&.< 2 F..X/.U.O o 4XaXaXaXaXaXaXaXaX",
"aXaXaXaXaXaXaXaXaX2XaX2XaXaX[.o       . O + j -.<.7.7.<.3.d.! ; ; ; ; ; 5 j.x.K.E.k...t 1 u.u.< y E.E._.Y.O @ 4XaXaXaXaXaXaXaXaX",
"aXaXaXaXaXaXaXaX2X2XaX-XaXaX3X*X2XaXaXaX{.. 9 R  .P ^ } M 1 3 XX].G._.R.H.; ; < y N.3.3.d.1 1 f.1.4.3.&.z.+ @ aXaX2XaXaXaXaX4X4X",
"aXaXaXaXaXaXaXaX2XaX2X2X2X2XaXaX4XaXaXfX}.. 4 W E ] _ ' S ; s ).E.W.W.W.B.1 : < i <.w.,.#.: 1 k.6.7.2.m.s.+ @ 3X2X2XaXaXaXaX4X4X",
"aXaXaXaXaXaXaXaX3XaX2X2XaXaX-XaXaXaX4XaX3XaX|.O ; ; ; ; + : 5 Q { U } } ` _ ! T `  ./ } H ; 3 G / ^ K 1 : >XaXaX2XaXaXaXaXaXaXaX",
"aXaXaXaXaXaXaXaXaXaXaXaXaXaXaXaXaX4XaXaX4XaX}.  . . O   O O , W R _ _ _ R R Q Q ' I ] _ S ; : Q R R T ; # 4X4XaXaXaXaXaXaXaXaXaX",
"aXaXaXaXaXaXaXaXaXaXaXaXaXaXaXaX4X4X=XaXaX2XaX4X7XaX3X-X7X;X+X+ ; : ; ; ; ; > > ; : < < ; ; > ; ; : 4 4X;XaXaXaXaXaXaXaXaXaXaX2X",
"aXaXaXaXaXaXaXaXaXaXaXaXaXaX4X4X=XaXaXaXaXaX;XaXaX7XaX7X4X=XOX. . .     . O O O   . + ; ; ; + O O   X 7XaXaXaX4XaXaX2X2XaXaXaXaX",
"aXaXaXaXaXaXaXaXaXaXaXaXaXaXaX4XaX4XaXaX=XaXaXaXaX4XfXaXaXaXaX;XaX2X<X<X4X4XaXaX#X  + Z Q Q D ; % 7X2X<X2XaXaXaXaX2X2X2XaXaXaXaX",
"aXaXaXaXaXaXaXaXaXaXaXaXaXaXaXaX4XaXaXaXaXaX-X2X*XaX4XaXaX4X=X4XaXaX2XaXaX4X4X4X@X  > W O.I H < > ;X4X2XaXaXaX;XaX2X2X2XaXaXaXaX",
"aXaXaXaXaXaXaXaXaXaXaXaXaXaXaXaXaXaX4X4XaXaXaX2X:XaXaX=X4XaXaXaX4XaXaXaXaX4X4X>XaX;X$X; 1 [ [ i.r.O - -XaX4X4XaXaX2X2X2XaXaXaXaX",
"aXaXaXaXaXaXaXaXaXaX2X2X2X2X2X2X2X<X2XaXaX4X4X4XaX4XaXaXaXaX-X<XaXaXaXaX2XaXaX4XaXaX@X  2 T { f.p.O o 2X2X2XaXaXaXaXaXaXaXaXaXaX",
"aXaXaXaXaXaXaXaXaXaX2X2X2X2X2X2X2X2XaX4XaXaXaXaXaXaX4XaX4X2X<X:XaXaXaX2X<X2XaXaX7XaX-XaX$X; ; ; + O $ 3X2X2X4XaXaXaXaXaXaXaXaXaX",
"aXaXaXaXaXaXaXaXaX2X2XaXaXaXaXaXaXaXaXaXaXaXaXaXaXaXaXaXaXaX2X2XaXaXaXaXaXaXaXaXaXaX2XaX%X  O .   o X 4XaX4X4XaXaXaXaXaXaXaXaXaX",
"aXaXaXaXaXaXaXaXaXaXaXaXaXaXaXaXaXaXaXaXaXaXaXaXaXaXaXaXaXaXaXaXaXaXaXaXaXaXaXaXaXaX4XfXaXaX4XaXaXfXaXaXaX4XaXaXaXaXaXaXaXaXaXaX",
"aXaXaXaXaXaXaXaXaXaXaXaXaXaXaXaXaXaXaXaXaXaXaXaXaXaXaXaXaXaXaXaXaXaXaXaXaXaXaXaX4XaXaXaX4XaXaXaX4XaXaX4X4XaX;XaXaXaXaXaXaXaXaXaX",
"aXaXaXaXaXaXaXaXaXaXaXaXaXaXaXaXaXaXaXaXaXaXaXaXaXaXaXaXaXaXaXaXaXaXaXaXaXaXaXaXaXaXaXaXaXfXaXaXaXaX*XaXaX4XaXaXaXaXaXaXaXaXaXaX",
"aXaXaXaXaXaXaXaXaXaXaXaXaXaXaXaXaXaXaXaXaXaXaXaXaXaXaXaXaXaXaXaXaXaXaXaXaXaXaXaXaXaXaXaXaXaX4X4X4X4XaXaXaXaXaXaXaXaXaXaXaXaXaXaX",
"aXaXaXaXaXaXaXaXaXaXaXaXaXaXaXaXaXaXaXaXaXaXaXaXaXaXaXaXaXaXaXaXaXaXaXaXaXaXaXaXaX4XaXaXaXaX4XaXaX4X4XaXfXaX4XaXaXaXaXaXaXaXaXaX",
"aXaXaXaXaXaXaXaXaXaXaXaXaXaXaXaXaXaXaXaXaXaXaXaXaXaXaXaXaXaXaXaXaXaXaXaXaXaXaXaXaXaXaX4XaXaXaX*XfXaX4XaXaXaXaX4XaXaXaXaXaXaXaXaX",
"aXaXaXaXaXaXaXaXaXaXaXaXaXaXaXaXaXaXaXaXaXaXaXaXaXaXaXaXaXaXaXaXaXaXaXaXaXaXaXaXaXaXaXaX4X4XaXaXaXaXaXaXaXaX4XaXaXaXaXaXaXaXaXaX",
"aXaXaXaXaXaXaXaXaXaXaXaXaXaXaXaXaXaXaXaXaXaXaXaXaXaXaXaXaXaXaXaXaXaXaXaXaXaXaXaXaXaXaXaXaXaXaXaXaXaXaXaXaXaXaXaXaXaXaXaXaXaXaXaX",
"aXaXaXaXaXaXaXaXaXaXaXaXaXaXaXaXaXaXaXaXaXaXaXaXaXaXaXaXaXaXaXaXaXaXaXaXaXaXaXaXaXaXaXaXaXaXaXaXaXaXaXaXaXaXaXaXaXaXaXaXaXaXaXaX",
"aXaXaXaXaXaXaXaXaXaXaXaXaXaXaXaXaXaXaXaXaXaXaXaXaXaXaXaXaXaXaXaXaXaXaXaXaXaXaXaXaXaXaXaXaXaXaXaXaXaXaXaXaXaXaXaXaXaXaXaXaXaXaXaX",
"aXaXaXaXaXaXaXaXaXaXaXaXaXaXaXaXaXaXaXaXaXaXaXaXaXaXaXaXaXaXaXaXaXaXaXaXaXaXaXaXaXaXaXaXaXaXaXaXaXaXaXaXaXaXaXaXaXaXaXaXaXaXaXaX",
"aXaXaXaXaXaXaXaXaXaXaXaXaXaXaXaXaXaXaXaXaXaXaXaXaXaXaXaXaXaXaXaXaXaXaXaXaXaXaXaXaXaXaXaXaXaXaXaXaXaXaXaXaXaXaXaXaXaXaXaXaXaXaXaX",
"aXaXaXaXaXaXaXaXaXaXaXaXaXaXaXaXaXaXaXaXaXaXaXaXaXaXaXaXaXaXaXaXaXaXaXaXaXaXaXaXaXaXaXaXaXaXaXaXaXaXaXaXaXaXaXaXaXaXaXaXaXaXaXaX",
"aXaXaXaXaXaXaXaXaXaXaXaXaXaXaXaXaXaXaXaXaXaXaXaXaXaXaXaXaXaXaXaXaXaXaXaXaXaXaXaXaXaXaXaXaXaXaXaXaXaXaXaXaXaXaXaXaXaXaXaXaXaXaXaX",
"aXaXaXaXaXaXaXaXaXaXaXaXaXaXaXaXaXaXaXaXaXaXaXaXaXaXaXaXaXaXaXaXaXaXaXaXaXaXaXaXaXaXaXaXaXaXaXaXaXaXaXaXaXaXaXaXaXaXaXaXaXaXaXaX"
};
