/* XPM */
static char *_84f9f2a64254349d12cc7d9b202df4emaBP6qch6EWOENfG[] = {
/* columns rows colors chars-per-pixel */
"64 64 229 2 ",
"   c #140A14",
".  c #1B0D19",
"X  c #1A111C",
"o  c #240C19",
"O  c #29131B",
"+  c #1C1120",
"@  c #2A0F24",
"#  c #231324",
"$  c #28172B",
"%  c #2A1A2D",
"&  c #37182A",
"*  c #2C1D31",
"=  c #321C33",
"-  c #3C1B31",
";  c #3C1E3A",
":  c #292529",
">  c #342A2F",
",  c #332235",
"<  c #35263B",
"1  c #3A263B",
"2  c #372938",
"3  c #3B293C",
"4  c #353535",
"5  c #3C3C3C",
"6  c #401A2C",
"7  c #431C33",
"8  c #471836",
"9  c #4C1E33",
"0  c #541E33",
"q  c #54302E",
"w  c #442134",
"e  c #4A2233",
"r  c #44253C",
"t  c #572634",
"y  c #54213D",
"u  c #5A2439",
"i  c #662835",
"p  c #642A3B",
"a  c #6B2C3D",
"s  c #673336",
"d  c #6D3137",
"f  c #75323D",
"g  c #7B333D",
"h  c #7C3B3F",
"j  c #49433F",
"k  c #74412D",
"l  c #3F2C42",
"z  c #452B42",
"x  c #4C2C48",
"c  c #542F4D",
"v  c #4A3545",
"b  c #4C314C",
"n  c #553449",
"m  c #4F3350",
"M  c #543554",
"N  c #593757",
"B  c #563957",
"V  c #5A3954",
"C  c #573458",
"Z  c #5C3C5C",
"A  c #652B45",
"S  c #6B2C42",
"D  c #732D40",
"F  c #702F4A",
"G  c #6C3445",
"H  c #743342",
"J  c #7B3442",
"K  c #743840",
"L  c #7C3A41",
"P  c #683D55",
"I  c #613E5E",
"U  c #5F3D60",
"Y  c #603F61",
"T  c #434343",
"R  c #494348",
"E  c #4D4C4C",
"W  c #54464C",
"Q  c #4F4B50",
"!  c #5D4158",
"~  c #535353",
"^  c #5A5756",
"/  c #5C5C5C",
"(  c #64425C",
")  c #68455A",
"_  c #784659",
"`  c #665C5D",
"'  c #654262",
"]  c #694463",
"[  c #6C4767",
"{  c #734C64",
"}  c #794862",
"|  c #605B60",
" . c #765366",
".. c #7B556B",
"X. c #7D5A6D",
"o. c #636363",
"O. c #6B6669",
"+. c #6C6C6C",
"@. c #716D6D",
"#. c #76716F",
"$. c #6F6F70",
"%. c #747474",
"&. c #787879",
"*. c #7B7B7B",
"=. c #88383C",
"-. c #943B3C",
";. c #A03E3C",
":. c #8C5236",
">. c #995B3D",
",. c #A25B3D",
"<. c #8D6231",
"1. c #A4643F",
"2. c #833644",
"3. c #843B42",
"4. c #8C3D43",
"5. c #923E43",
"6. c #8D4242",
"7. c #894B41",
"8. c #954143",
"9. c #9B4344",
"0. c #9D4A43",
"q. c #954A4B",
"w. c #9A5643",
"e. c #854B57",
"r. c #924E57",
"t. c #89535A",
"y. c #93575B",
"u. c #A14545",
"i. c #A34945",
"p. c #A84B48",
"a. c #A65A41",
"s. c #AD5A52",
"d. c #9D6444",
"f. c #A86842",
"g. c #B37847",
"h. c #AE6C50",
"j. c #A4715B",
"k. c #834E64",
"l. c #835467",
"z. c #825A6E",
"x. c #8B5D6C",
"c. c #965B63",
"v. c #835D72",
"b. c #895F76",
"n. c #89646D",
"m. c #9C6B6E",
"M. c #846174",
"N. c #8D6573",
"B. c #8D6A78",
"V. c #976A77",
"C. c #956D74",
"Z. c #946E7B",
"A. c #887A78",
"S. c #98767A",
"D. c #AD7572",
"F. c #A97977",
"G. c #A27B7B",
"H. c #7F807F",
"J. c #B88648",
"K. c #AD807B",
"L. c #B8817A",
"P. c #7F7F80",
"I. c #807F80",
"U. c #927580",
"Y. c #9A7B82",
"T. c #A57E84",
"R. c #848484",
"E. c #8A8583",
"W. c #8B8B8B",
"Q. c #978D8A",
"!. c #8F908F",
"~. c #999086",
"^. c #949494",
"/. c #999796",
"(. c #9B9B9B",
"). c #A48384",
"_. c #A88787",
"`. c #A38985",
"'. c #AC8B8B",
"]. c #B28887",
"[. c #B28D8A",
"{. c #AA938F",
"}. c #B5928C",
"|. c #BA948D",
" X c #A69794",
".X c #B69A92",
"XX c #B59995",
"oX c #BB9B93",
"OX c #9FA09F",
"+X c #A0A09E",
"@X c #B6A59A",
"#X c #BCA39A",
"$X c #9F9FA1",
"%X c #A09FA0",
"&X c #A4A4A4",
"*X c #A8A7A6",
"=X c #ABACAB",
"-X c #BEADA2",
";X c #B0B0AF",
":X c #AFAFB0",
">X c #B3B3B3",
",X c #B8B7B7",
"<X c #BBBBBB",
"1X c #C29E95",
"2X c #C6A89D",
"3X c #C5ADA3",
"4X c #CBADA1",
"5X c #C2B2A7",
"6X c #CAB5A7",
"7X c #CBB6A9",
"8X c #CEB9AA",
"9X c #D3BCAC",
"0X c #BFC0BF",
"qX c #D7C2B0",
"wX c #D8C3B1",
"eX c #BFBFC0",
"rX c #C3C3C3",
"tX c #C7C8C7",
"yX c #CBCBCB",
"uX c #CFD0D0",
"iX c #D2D2D2",
"pX c #D3D4D3",
"aX c #D8D8D7",
"sX c #DBDBDB",
"dX c #DFE0E0",
"fX c #E4E4E4",
"gX c #E8E7E7",
"hX c gray92",
"jX c #F6F6F6",
/* pixels */
"=XiX>X,X=X,X,X,X=X(.W.&X&X(.&.o./ E.5 +.>X&X+.o.| +.$./ iXpX&.rX>X(.^ /.(.<X<X+./ ~ E %.5 ^.&Xo.o.R.W.E./.&Xo.=X&X%.R.%.+.T T o.",
"=X&.%.W.^.(./.(./.W.%.>XiXsXaX,XW.W.W.yX/.o./ &.%.E.W.E.pXhXyX,X,XR.E W.=XiXiXyX<X>X&.%.O./.&.o.R.W.W.&.E.(.%.%.^.W./ 4 T ~ E.rX",
"E.W.&X=X&X(.W.W.W.&.T ,XjXjXpXtX<XyX<XrX&.o.+.R.E.!.W.W.,X,X&X!.>X&.^ &.R.E.!.+X(.&X(.(.=X,XE.!.(.!.W.%.&./.R.E R.W./.&.o.%.,X,X",
"(.^.&X=X^./.&./.W.&.T >XjX(.W.H.R.&X&.=X&X%.K.W.W.E.E.R.>X=XW.~ (.W.+./.&.W.W.(.E.&.&.(.iX=X(.(./.W.R.%.o.%.+.~ =X,X,XW.~ (.hX&X",
"W.E.^.&X^.&.%.(./.R.T <XpXW.E.%.%.W.&.R.,XrX&.+.&.R.W.^.=X=XW.~ W.&XW.R.%.&.W.(.(.&.+.>XaX(./.^.W.E.%.~ ~ E ~ /.yXrX(.%.R.gXgX(.",
"E.&.+.%.^.W.^.=X&XE.E pXpX&.&.+.+.E.(.^.^.yX(./ o.+.^.=X,X,X(.o.R.&X,X(.&.&.E.(./.&.o.fX>X(.^.W.R.%.o.~ T %.,XiX,X&.R./.~ gXsX&X",
"%.+.%.%.=X=X&X=X=XW.~ aXpXW.P.&.+.W.=X=X+.=X>X&.E.^. X#X5X-X5X-X@X-X5X5X5X#X'.Q.R.E.W.pX/.W.W.E.R./ 5 T ^.gXhX&XW.^.&X&X5 pXiX&X",
"/.o.o.%.W./.(.=X&XR.~ iXyXW.R.%.o.&.(.&XW.+.*X/.Q.Q..X3X6X6X6X6X6X6X6X6X6X3X#XXXQ.E.&X(.W.&.R.%.o.> E &XpXyXW.W.(.(.&X^.E ,XiXyX",
"iX,X&X%.~ / E.^.!.&./ pXyXW.&.+.+.&.^./.W.o. X2X4X2X8XqX9X9X9X9X9X9X9X9X9X9X9X9X4X}.`.&.+.^ E E T E &.rX(.W.W.^.^.W.(.W.^ >XaXpX",
"rX=XrXyX<X/.%.~ / / o.rXrXE.&.%.%.E.!.Q.`._.[.oX6X9XqXwXqXqXqXqXqXqXqXqXqXqXwXwX9X#X}.}.`.A.+.%.O.&.(.rX&X%.R.W.&.&.W./.E =XrXyX",
"%.%.^.<XrXyXyX,X^.+.R.,X>XR.W.W.^./.`.`.}.1X2X2X'.U.U.U.S.U.U.U.U.U.U.U.U.U.U.U.Y.'.2X2X}.{.A.E.&.E.<XaXiX<XW.E.R.W.W.^.5 >XrX(.",
"/ o.+.%.&.W.,X=X&X^./.>X&X&.W.(./.Q.oXoX}.'.XXT.X.C m M C C C C C C C C C C C C I v.'.}._.|.1X{.&.R.=XrXyXyXuX<XE.&.&.o./ ,X,Xo.",
"~ / +.%.&.&.^.R.&.&./.&X&.%.W.^.`.}.}.2X[.v.] Y ( Z m m Z Z I I I I I I I I I I I ' ' { C.[.|.}.`.&XyX<X(./.:XiXyX,X+.E W.&X(.~ ",
"+.o.o.o.+.+.W.W.&.o.(.>X>X=XW.Q.}.|._.Z...' Z U Y Z Z Z Z Z Z Z Z Z Z Z Z U Z ' Y Z Z I { N.'.oX[.&XyX<X<X&XE.<XrX,X&.E./.=XW.%.",
"%.%.%.o.+.&.(.&X&.~ =XrXpX<X=X|.|.).x.I C Z ' B z 3 3 3 3 3 3 3 3 3 3 3 3 3 3 l M ' Y Z Z ] N.].oX(.,XrX,XW.o.(.,X=X&X(.W.,X%.%.",
"P.R.W.W.W.^.(.(.W.+.<XgXhXsX=X[._.M.I Z I I Z 3 X                             X 1 Z I I Z Z ] N.}.(.(.,X(.+.%.^.rX/.^./.(.,X%.%.",
"&.W./.(.W.!.W.(.^.%.yXdX<XrXpXB...' Z Z ' B % $ & & & 6 6 7 - - - - 7 7 - & & & $ * Z ' Z Z Z { N././.&XR./ W.(.yX^.%.&XyX,X&.o.",
"&.E.W.^.E.R.E.^.^.%.rXpX=X&X=Xv.I N Y ' B 1 # 9 D a a H 2.2.J D S H J H H S u a e # 3 B ' Y Z I } !./.R.+.%.=X,X&X/.&X%.rXrX,X%.",
"W.(.(./.E.%.(.OX&X&.,X,XW./.$XM.] Z Y ' 1 X 7 2.u.4.3.6.i.i.u.5.h 4.9.8.8.4.K 8.3.9 + 3 ' Y Z ' ..W.E.+.~ E.(.<XR.R.,X^.W.(.*X(.",
"R.E.W.^.E.&.&X&X(.&./.^.W.(.W.X.] U Z B % o p =.-.=.g =.-.=.=.=.d =.;.-.-.g d =.5.g O * B I Z ' z.(.%.~ +.(.=XyXR.E.=X=XW.R.yXpX",
"=XW.P.W./.(.&X&X/.+.&.E.=X&X%.P Z Y Z z < n t.D.D.t.m.K.F.F.L.L.F.F.L.L.L.F.G.F.D.e.t = l Z Z Z V R.o.W./.(.>X(.W.^.&X>X&X&.&XdX",
"yX&.o./ | +./ / / / %.>XrX(.%.x V Z M , b ..z.XX3XT.#X9X6X8X3X#X6X8X7X7X8X6X3XXXY.k.A - , M Z V x / /.,X,X=X(.(.^.^./.,XyX,XR.&X",
"aX<X/.W.=X&XW.&.R.>XyXsXsXR.+.{ I C M , b ( x C.1X}.}.}.}.1Xn.n ).oX}.}..X'.V.) _ k.z $ , M V Z { R.>X,X,XW.(.(.^.^.(.>X,X&X^.+.",
"hXgXrXrXyXyXyXyXaXgXsXyXrX+.E  .( Z V , z ..A.).].[.oXoXoX|.'.`.}.oXoXoXoX}.S.Z.b.} 1 $ 1 Z Z ( ..=X<X,XE.^.>X&X/.(.(.E.^.%.~ +.",
"fX/.W.^.*X,X<XtXiX,X^.(.rX&X&.v.] Y Z 3 , ! Y.V.l.x.C.S.C.n.).XXS.C.S.S.S.C.n.Z.v.N ; $ 1 B U ] ..<XiX/.E.E.>X=X(.(././ ~ +.&XhX",
"/.(.W.W.(.>XrXrX=X(.W.&.&XpX(.M.] Y Z 3 X . 9 y y y y y y y y y y y y y y y y y y 8 = % 2 b B ] ..<X/.(.^.W.>X,X^.W.o.~ =XsXjXrX",
"W.E.%.!.&X,X=X(.(.E.^.&X&.aX<Xv.] Y Z 3 # @ 8 p p 8 8 u a a u 8 u p p a p p u p a p - $ 1 M Z ' X.iX&XE.R.E.&X&XP.&.o.+.yXgX,X^.",
"+.%.%.E.^.W.W.W.W.E.W.:X(./.<X..' Y Z 3 $ - a 3.3.p p f 6.6.f p K 3.6.3.L K G 3.6.L t = 1 Z Y ' ..=XrXrX(.$.o.R.%.R.%.o.yXgX=X%.",
"+./ +.R.%.%.E.E.E.R.W.,X&X+.&XM.] Y Z 3 $ 7 3.9.8.4.3.4.9.8.3.L L 8.u.4.3.L J 8.9.3.p - < Z U ' X.;X(.(.,X>X&X(.&.&.%.%.rXaXrX=X",
"=X&XW.R.o.o.+.R.W.W.W.=X/.~ (.B.] Y Z 3 $ w 3.9.9.5.5.9.u.u.8.3.3.8.u.4.4.8.6.9.i.8.D 7 < B Y ' z.(.(.=XE.R.&X<XyX=X^.&.(.&X,X>X",
",X=X^.W./ T ~ %.W.R.W./.E.T =XB.] Y Z 3 $ w 3.9.8.5.0.i.u.i.9.4.4.9.u.8.9.0.w.i.p.u.D 7 < Z Y ' v.(.(./.%./ &XrXrX,X^.&.W././.&X",
"&X(.%./.&.o.+.%.%.%.R.W.T +.<Xv.' Y Z 3 $ 7 3.8.4.5.a.f.u.u.9.9.8.9.9.9.9.0.w.0.u.9.D 7 < B Y ] X.&.&.E 5 R.>X/.+./ / +.>X=X&./.",
">X(./ /.(.<X<X+./ ~ E %.5 ^.&X..] ' Z 3 $ 7 K 3.3.8.a.a.u.u.9.9.9.8.-.=.5.8.h =.-.4.D w < Z ' ] ..E.5 +.>X&X+.o.o.+.$./ iXpX&.rX",
",XR.E W.=XiXiXyX<X>X&.%.+./.&.) M b x , $ 7 3.5.5.8.f.f.u.u.9.5.5.q.y.c.c.y.e.c.c.t.w # , x b n ) W.W.yX/.o./ &.%.E.W.E.pXhXyX,X",
">X&.^ &.R.E.^.+X(.&X(.(.=X,XE.) b z z % $ e 8.i.9.5.g.g.u.u.8.3.8.r.x.N.Y.).).Z.V.x.& . * z x x ) yX<XrX&.o.+.R.E.^.W.W.,X,X&X^.",
"(.W.+./.&.W.W.(.E.&.&.(.iX=X(.M.' Z Z 1 % e 8.i.9.9.g.g.u.i.4.K :.q._ V Y.7X#XX.) k.A - < Z Z ' X.&X*.=X&X%.R.W.W.E.E.R.>X=XW.~ ",
"W.&XW.R.%.&.W.(.(.&.+.>XaX(./.M.] ' Z 3 $ w =.8.8.9.g.g.u.i.J u =.q._ c S.9X2X) c k.F 7 < Z ' ] ..W.&.R.,XrX&.+.&.R.W.^.=X=XW.~ ",
"R.&X,X(.&.&.E.(./.&.o.fX:X(.^.X.] ' Z 3 $ w L 8.5.8.g.g.u.i.g u :.q.P x  .S.S.! n } S 7 < B Y '  .E.(.^.^.yX(./ o.+.!.=X,X,X(.o.",
"o./.<X,X=X^.E.(.W.E.W.pX/.W.W.X.' Y Z 3 $ w 6.9.5.5.f.f.u.i.3.f >.w.P v v n v ) ] P S w < B Y ] ..W.=X=X+.=X:X&.E.&X,X,X&X(.&XE.",
"~ rXgXiXiXyX>X,X/.W.>X(.W.&.P...V M B 3 $ e 8.9.6.5.6.0.u.i.4.3.1.7._ ).{ 8 x ).Y.c A e < B Y '  .&.(.&XW.+.>X(.^.=X=X&XW.&.^.E.",
"~ sX=X/.W.(.&XrX^.%.(.%.o.~ E { V M M 3 # 6 8.i.8.5.f J i.u.8.8.1.:.r.[.).Z.Z.XXF.J S w < B Y '  .&.^.(.W./ &X&XrXyX&XW.R.o.&.E.",
"~ yX&X(./.(.&X&X%.%.E.&.&.&.%...] N M 3 X O 8.p.u.5.a a 9.u.9.9.f.a.9. .'.8X3XS.r.u.D w < B Y ' ..R.^.&X(.E (./.=XaX,X&.%.+.%.A.",
"~ rX(.^.W.^.(.W.~ %.R.(.rXiX,Xv.] U Z 3 X O 8.p.9.5.J G L 9.9.0.g.f.5.G n W W n L u.D w < B Y ] M.&X&X&XR.E &X(.&XrX(.(.&.~ %.%.",
"+.yX/.W.W.W.W.&.4 o.^.uXpXyX(.X.' Y Z 3 + & 8.i.8.5.5.3.K 8.9.0.J.h.5.h p 9 7 i -.i.g w < B Y ] M.=X=X(.+./ =X/.W.^.W.W.>X^./ / ",
"(.iXW.W.E.E.E.4 / &.=X<X&X(.E.X.] Y Z 3 # 6 8.9.4.8.i.9.4.9.9.i.J.f.4.4.9.4.a 4.p.0.f w < B Y ] M.=X=XOX+.&.yX=X!.E.^.%.>X>X=X(.",
"yXyXW.+.+.+.4 ~ W.>X=X&X/.W.W.v.] Y Z 3 + & 5.9.5.9.a.a.u.u.9.0.1.w.2.D 4.8.H 4.i.0.f w < Z Y ] M./.(.W.&.W.yXyX^.W.W.E.(.E.*X,X",
">X<X=X&.Q T / !.>X&X=X<X^.W.W.M.[ ' Z 3 # & a J g =.,.,.4.4.g f >.,.5.g 5.5.f h 8.6.D w < Z ' [ z./.(.E.E.W.0XyX^.^.^.W.&X&XW.&.",
"%.W.W.&.&.%.W.=X/.(.>X,X,X^.^.) N C m = , n G _ t.t.j.j.y.y.e._ j.j.s.y.c.y._ t.y.e.A - = m C N ) $.E.%.E.E.=XyX(.&X(.W.^./.(./.",
"R./ %.&.&./.,XyX&XE./.,XeX>X/.= ; 1 = + z z.x._.oX.X.X.X.X.X.X}..X.X.X.XoX[.S.T.T.N.x # # = 1 ; = &.%.o.W.^.(.yX/.(.!.R.&.W.(.(.",
"%.T E.&X=X<XsXaX<XW./.,XrX,X,X) M M b % z ..Z.).[.oXoX.X.XoXXXXXXX.X.X.XoX.X_.S.Z.z.z $ = b M M ) <XpXaXpX>X(.yX/./.W.&.R./.(.(.",
"%.o.rXyX<XP.OXrXrX=X(.(.>X=X<XB.[ ' Z 3 z [ B.Z.G.).[.}.}.}.}.{.}.}.}.}.}.].V.n.z.} r $ 3 ( ' [ b.(.<X,XyX&XW.=X(.W.&.%.W.=X=X(.",
"4 W.pXjX&XW./.W.<XyX>X/./.&X,XM.] Y Z < z P _ x.x.l.C.K.G.G.G.G.G.G.G.G.G.V.} } k._ r $ 3 Z Y ' X.E.(.(.W./.W.R.W.&.%.R.(.=X,X(.",
"/ ,XiX,X(.(.(.&X^.yXyX^.W.^.=Xv.] Y Z 3 = ; ; 1 r 1 r z z z z z r z z z z r r ; ; < = $ 3 Z ' ' ..E./.%./ R.W.+.(./.^.$X=X&X&Xo.",
"&XsXiX/.(./.(.>X^.^.yX=XR.R.W.z.' Y Z 3 $ - t i t e q s s s t e t t 0 0 t 9 - q s t - % 3 B ' '  .%.R.+.T ^.W.&.W.(.&X&X/.^.W.4 ",
"gXsX^.W.W.&.^.&X(.%.&X=X:XW.%...' Y Z 3 % q a.a.9.=.>.1.d.d.7.h >.a.9.0.0.g e :.w.L 7 $ 1 Z ' ' { %.W.&.E ,X&.%.%.W.=X~ T 4 E E.",
"fX&XW.W.R.%.&./.W.R.+./.,X&X/ { ] [ Y 3 & q <.<.k d q j W j 4 > k :.<.<.:.q % W O.^ # # 3 ' [ ] { W.&XR.~ &Xo.o./ ~ E ~ (.>X<XiX",
"rXW.W.E.&.+.%.R.R.R.R.%.&X>X/.O.v < 3 % R @.~.~.#.` O.R R / &.&X XA.#.A.~.E.&.^.*XW.+.| R 3 , v #.=X=XR.~ (.&X(.,XrXyXpXaXrX>X<X",
"=XE.W.W.&.+.&.(.W.E.R.W.+.,X&XE.R : > , @.W.=X>XW.W.o.~ =XsXjXrX^.(.W.W.(.>XrXrX=X(.W.%./ v X Q %X>XW.%.~ ^.sXfXgXpX,XW.&.P.W.>X",
"&XE.%.R.&.&./.=X/.^.E.W./ rX,X,X&XiX&XE.R.E.&X&X&.&./ +.yXfX,X^.W.E.%.!.&X,X=X(./.E.^.&X&.aX<XOX&X&X/ T o.,XgX,X^.R.R.%.&.&.E &X",
"(.(.o.$.&.E./.&X/.E.%.%.+.rXyXW.&.=XrXrX(.$.o.E.%.R.%.o.tXgX=X%.+.%.%.E.^.W.W.W.W.E.W.:X(.(.<X%.&.~ +.&X>XyX=X(.(.(.(.^.R.%.T &.",
"/.=X+.+.&.I.W.W./.E.%.~ (.pX=X&.(.;X(.(.,X>X&X(.&.&.%.%.rXaXrX=X+./ +.R.%.%.E.E.E.E.W.,X&X+.&X>X,X&XgXrX=XiX>XW.W.W.W.W./.^.o.o.",
"eX=X&.o.%.&.R.W.^.&./ &.yXrX+.R.&X(.(.=XE.R.&X<XyX=X^.*.(.=X,X>X=X&XW.R.o.o.+.R.W.W.W.=X/.~ (.yXgXjX<XE.+.<XpX/.W.W.E.&.W.W.R.~ ",
"yXrXW.~ ~ / $.R.R.&.T =XiXW.+./.&X(.(./.%./ &XrXrX,X^.&.W././.&X>X=X/.W./ T ~ %.W.R.W./.E.T =XpXrX/.E.R.+.(.hXyXR.E.E.&.E.W.W.~ ",
",XrX&XW.+.+./ E T E +.>X&X~ %.W.W.&.&.E 5 R.>X/.+./ / +.>X=XH./.&X(.%./.&.o.+.%.%.%.R.W.T +.<X/.%.W.^./.W.o.(.rX(.&.E.R.E.&.W.o."
};
