/* XPM */
static char *_96878f4e3f34c05981b60050e566364n1dbkdSSG4kXok4U[] = {
/* columns rows colors chars-per-pixel */
"64 64 174 2 ",
"   c None",
".  c #150B15",
"X  c #1A0E14",
"o  c #1F0F1D",
"O  c #171219",
"+  c #1A121B",
"@  c #23101F",
"#  c #1B1220",
"$  c #231424",
"%  c #231C24",
"&  c #26192A",
"*  c #2B192C",
"=  c #2E1525",
"-  c #32162F",
";  c #361A2F",
":  c #2F1731",
">  c #2F1F30",
",  c #351A32",
"<  c #391B30",
"1  c #371D38",
"2  c #381E39",
"3  c #29262A",
"4  c #272224",
"5  c #3E242F",
"6  c #332334",
"7  c #3C2036",
"8  c #3C203B",
"9  c #461E34",
"0  c #491E35",
"q  c #4A1F3C",
"w  c #531F3C",
"e  c #49242D",
"r  c #422739",
"t  c #4C2434",
"y  c #5E2C34",
"u  c #53213B",
"i  c #5B243D",
"p  c #63263E",
"a  c #642A3D",
"s  c #66313D",
"d  c #68303E",
"f  c #73353F",
"g  c #7C3A3F",
"h  c #68452C",
"j  c #7B4E2F",
"k  c #724A2E",
"l  c #462944",
"z  c #4A2941",
"x  c #452743",
"c  c #5A2740",
"v  c #4B3041",
"b  c #4A324C",
"n  c #513646",
"m  c #543B48",
"M  c #5F394F",
"N  c #563653",
"B  c #5F3352",
"V  c #553855",
"C  c #5A3855",
"Z  c #5D3E5D",
"A  c #622640",
"S  c #682F44",
"D  c #652C44",
"F  c #702C41",
"G  c #6A364F",
"H  c #743541",
"J  c #7B3743",
"K  c #753B44",
"L  c #7C3A41",
"P  c #7A3B4B",
"I  c #643A56",
"U  c #603E5F",
"Y  c #683E5A",
"T  c #5F3F60",
"R  c #603E60",
"E  c #7E4144",
"W  c #62415E",
"Q  c #674C59",
"!  c #7C4252",
"~  c #634160",
"^  c #6C4561",
"/  c #684963",
"(  c #704665",
")  c #7C4E66",
"_  c #7D4F68",
"`  c #764B65",
"'  c #7D5067",
"]  c #755268",
"[  c #7D5168",
"{  c #80393E",
"}  c #8C423C",
"|  c #835E33",
" . c #886635",
".. c #A6663F",
"X. c #A3693C",
"o. c #823741",
"O. c #843C42",
"+. c #8A3E43",
"@. c #913E43",
"#. c #874547",
"$. c #8D4043",
"%. c #864549",
"&. c #8E464B",
"*. c #944144",
"=. c #9B4445",
"-. c #954A42",
";. c #9C4C4C",
":. c #995641",
">. c #9E5C41",
",. c #854A57",
"<. c #A14645",
"1. c #A24B44",
"2. c #A24E4B",
"3. c #A45643",
"4. c #A16341",
"5. c #A56940",
"6. c #AB6840",
"7. c #A66B49",
"8. c #A96542",
"9. c #AE7142",
"0. c #B47D44",
"q. c #814D64",
"w. c #855062",
"e. c #8E5962",
"r. c #82546A",
"t. c #885469",
"y. c #855C6D",
"u. c #885968",
"i. c #80686E",
"p. c #8E6575",
"a. c #8F6A72",
"s. c #936472",
"d. c #956B76",
"f. c #9B6D79",
"g. c #9B6D77",
"h. c #807573",
"j. c #8C787D",
"k. c #9E727A",
"l. c #957F7B",
"z. c #A0777D",
"x. c #A57D7D",
"c. c #B68648",
"v. c #B98348",
"b. c #BB8B49",
"n. c #A27D82",
"m. c #A37F8A",
"M. c #988380",
"N. c #AE8D89",
"B. c #AB8886",
"V. c #B38F89",
"C. c #AE918A",
"Z. c #B4918B",
"A. c #A79499",
"S. c #A99992",
"D. c #B69591",
"F. c #B99A93",
"G. c #B09598",
"H. c #BFA59B",
"J. c #C2A69D",
"K. c #C0A69F",
"L. c #C4A89E",
"P. c #C5ADA2",
"I. c #C9AFA4",
"U. c #C3A6A1",
"Y. c #C5B1A5",
"T. c #C5B2A5",
"R. c #CBB2A5",
"E. c #CBB2A6",
"W. c #CBB1A6",
"Q. c #CFB9AA",
"!. c #CEB9AA",
"~. c #CEBAAA",
"^. c #CEB9AD",
"/. c #D0B9AA",
/* pixels */
"                                                                                                                                ",
"                                                                                                                                ",
"                                                                                                                                ",
"                                                                                                                                ",
"                                                                                                                                ",
"                                                                                                                                ",
"                                                                                                                                ",
"                                                                                                                                ",
"                                                                                                                                ",
"                                                                                                                                ",
"                                                                                                                                ",
"                                                                                                                                ",
"                                                                                                                                ",
"                                                                                                                                ",
"                                                        C.Y.Y.Y.Y.Y.Y.P.N.l.                                                    ",
"                                                  S.J.F.Q.Q.Q.Q.Q.Q.Q.Q./.R.Z.M.                                                ",
"                                              l.Z.Z.J.^.Q.Q.Q.Q.Q.Q.Q.Q.Q.Q.H.Z.Z.h.                                            ",
"                                            Z.Z.Z.U.n.~ W W ~ ~ ~ ~ ~ ~ ~ ~ p.P.Z.Z.N.                                          ",
"                                          Z.Z.J.p.~ U Z b Z U U U U U U U U R ^ y.Z.Z.B.                                        ",
"                                        Z.Z.x.^ T U U V V V V V V V V V V C U U U [ Z.Z.                                        ",
"                                        V.n.^ U U Z & . . . . . . . . . . % Z U U U r.D.                                        ",
"                                        r.U U U Z + 0 0 u i i u u i i u 9 0 # Z U U U [                                         ",
"                                        ' U U U $ 0 =.O.L <.<.*.L *.+.*.H *.0 $ R U U _                                         ",
"                                        ' U U b @ J *.O.L *.+.*.H <.<.*.H *.+.@ b U U _                                         ",
"                                        z Z C 6 / d.R.k.R.R.R.W.R.R.R.R.P.F.t.c 6 C Z z                                         ",
"                                        ' C C 6 W n Z.Z.Z.Z.Z.n N.Z.Z.Z.s.B r.1 > V C `                                         ",
"                                        ' U U 6 W G.k.z.Z.Z.B.^.Z.Z.Z.Z.x.m.( 1 6 Z U _                                         ",
"                                        [ U U 6 . u u u u w u w u w w u u u q * 6 b Z _                                         ",
"                                        ' U U 6 - i L u i L g u H L L H d L L < 6 Z U _                                         ",
"                                        _ U U 6 , +.*.O.{ =.+.L L <.O.L H =.O.i 6 Z U _                                         ",
"                                        _ U U 6 < $.=.@.=.<.<.+.O.<.+.=.-.<.<.p 6 Z U _                                         ",
"                                        ' U U 6 , @.*.@.8.<.<.=.*.<.=.=.:.<.<.p 6 Z U _                                         ",
"                                        _ R U 6 , J o.*.6.<.<.=.*.*.O.=.J O.$.p 6 Z U _                                         ",
"                                        M x x * , =.=.*.0.<.<.+.*.e.f.f.f.g.s.X * x x M                                         ",
"                                        [ U U 6 , =.=.=.v.<.<.H -.,.V J.H.I w.i 6 Z U _                                         ",
"                                        _ U U 6 , O.*.=.b.<.<.u } ,.N N.F.l q.A 6 Z U _                                         ",
"                                        [ R U 6 , *.*.@.9.<.<.f 4.! v m n Q Y p 6 Z U _                                         ",
"                                        ' b C 6 , =.*.@.O.<.<.+.4.P F.I B L.G p 6 Z U _                                         ",
"                                        [ Z N 6 X =.<.@.p =.<.*.5.<.y.I.R.a.<.A 6 Z U _                                         ",
"                                        [ U U 6 X =.=.@.J f <.*.c.<.s r r y <.p 6 Z U [                                         ",
"                                        [ U U 6 = =.$.*.=.O.<.=.b.*.*.$.p =.1.a 6 Z U _                                         ",
"                                        ' U U 6 o *.*.=.6.<.<.*...$.F =.H *.1.a 6 Z U _                                         ",
"                                        ` U Z 6 7 D K E 7.%.%.S 7.2.&.;.K %.#.i 6 Z U `                                         ",
"                                        , 8 2 $ ] s.F.F.F.F.F.F.F.F.F.F.n.n.d.7 $ 1 8 ,                                         ",
"                                        ' U U 6 W j.k.Z.Z.Z.Z.A.Z.Z.Z.Z.n.i.r.1 6 Z U _                                         ",
"                                        ' U U 6 I q.s.u.x.x.x.x.x.x.x.x.q.q.) , 6 Z U _                                         ",
"                                        ' U U 6 , , , , , , , , , , , ; ; , , : 6 Z U _                                         ",
"                                        ' U U 6 5 3.<.{ X.4.>.O.3.*.*.*.t >.O.< 6 Z U _                                         ",
"                                        ^ U U 6 e  .j y 3 3 3 4 h |  .k % 3 3 $ 6 Z U ^                                         ",
"                                          O O $                                   O O                                           ",
"                                                                                                                                ",
"                                                                                                                                ",
"                                                                                                                                ",
"                                                                                                                                ",
"                                                                                                                                ",
"                                                                                                                                ",
"                                                                                                                                ",
"                                                                                                                                ",
"                                                                                                                                ",
"                                                                                                                                ",
"                                                                                                                                ",
"                                                                                                                                ",
"                                                                                                                                ",
"                                                                                                                                "
};
