/* XPM */
static char *cc4e3c9946004de0a84d7f27b9b7c94fvkL5xGNBbiInR8ZQ[] = {
/* columns rows colors chars-per-pixel */
"50 64 17 1 ",
"  c None",
". c black",
"X c #0D311A",
"o c #7D0000",
"O c #4A3218",
"+ c #402C21",
"@ c #18482B",
"# c #286A44",
"$ c #BA0505",
"% c #F20E0E",
"& c #F22E0E",
"* c #956D5E",
"= c #C49D8E",
"- c #FEA596",
"; c #DCC7B1",
": c #D8D8D8",
"> c #E2D4C3",
/* pixels */
"                                                  ",
"                                                  ",
"                                                  ",
"                                                  ",
"                                                  ",
"                                                  ",
"                                                  ",
"                      OOOOOOOOO                   ",
"                    OO=;%%;;;;;OO                 ",
"                   O*=>>%%>>>>;==O                ",
"                   O=;>>%%;;>>>>==O               ",
"                  O==>;%%%;;;;;>>==O              ",
"                  O=>;;%%%;;;;;;>>=O              ",
"                  O=;;%%%%%;;;;;;>;*              ",
"                  O;;;%%$$%;;;;;;;;*              ",
"                  O;;;%$$$%%;;;;;;;*              ",
"                  O;;;$$%%%%;;;;;;;*              ",
"                  O;;;$OO%%%;+++;;;*              ",
"                  O;;;O=*$%%;++++;;*              ",
"                  O=;;O;=$%%;&&..;>*              ",
"                  O*;;O;*$%%;&&..;>*              ",
"                   O=;O;=$$%%::--;>*              ",
"                   O*=$O;$$%%;:--;>*              ",
"                    OO$$O$$$$%;;;;;O              ",
"                    O*oo$$$$$$;;;;=O              ",
"                    O*ooo$$$$$;;==O               ",
"                    O*$o$ooooo===O                ",
"                    O=$$ooooOOOOOOOO              ",
"                   O*=%%=;%%%%%%==**O             ",
"                   O==%%==;$$$$$%=**O             ",
"                   O==%%OOOOOOOO$%==O             ",
"                   O=%%%;;;;*  O$$==O             ",
"                   O=%%$;;;%*   OOOO              ",
"                   O%%$;;;;%*                     ",
"                   O%%$;=;%%*                     ",
"                   $%$;;==%%*                     ",
"                   $$$;;==%$O                     ",
"                   $$;;;=%%$O                     ",
"                   O=;;;%%$=O                     ",
"                  XXXXXX%$XXX                     ",
"                  X@####$$@@X                     ",
"                  X@#####$@@X                     ",
"                  X@;;####@@X                     ",
"                  X*;####@@@X                     ",
"                  O=##@@@@@@XX                    ",
"                  O;#@@@XX@XXX                    ",
"                 X@#@@@X XXX=O                    ",
"                 X@#@@X   X*=O                    ",
"                X@@@@@X   O*==O                   ",
"                X@@@@X    O*==O                   ",
"               O=;;=X     O**==O                  ",
"               O====X     O****O                  ",
"               O*===O      OOOO                   ",
"               O**==O                             ",
"                OOOO                              ",
"                                                  ",
"                                                  ",
"                                                  ",
"                                                  ",
"                                                  ",
"                                                  ",
"                                                  ",
"                                                  ",
"                                                  "
};
