/* XPM */
static char *_a721ab9b59a42c495c981d042e1e354CrVHNtmw1HBBKfRt[] = {
/* columns rows colors chars-per-pixel */
"64 64 87 1 ",
"  c black",
". c #0D311A",
"X c gray18",
"o c #353535",
"O c #3C3C3C",
"+ c #7D0000",
"@ c #4A3218",
"# c #402C21",
"$ c #18482B",
"% c #286A44",
"& c #434343",
"* c #4C4C4C",
"= c #535353",
"- c #595957",
"; c #5C5C5C",
": c #636363",
"> c #676969",
", c #6C6C6C",
"< c #706F6F",
"1 c #6F6F70",
"2 c #6F7171",
"3 c #747474",
"4 c #787777",
"5 c #7B7B7B",
"6 c #BA0505",
"7 c #F20E0E",
"8 c #F22E0E",
"9 c #956D5E",
"0 c #7F807F",
"q c #7F7F80",
"w c #807F80",
"e c #848484",
"r c #8B8B8B",
"t c #908F8F",
"y c #8F908F",
"u c #8E8E90",
"i c #949494",
"p c #979897",
"a c #989897",
"s c #9B9B9B",
"d c #9FA09F",
"f c #A0A09E",
"g c #9F9FA0",
"h c #A4A4A4",
"j c #A7A8A7",
"k c #A8A8A7",
"l c #ABABAB",
"z c #B0B0AF",
"x c #AFAFB0",
"c c #B0AFB0",
"v c #B3B3B3",
"b c #B5B6B6",
"n c #B8B7B7",
"m c #B7B7B8",
"M c gray72",
"N c #BABBBB",
"B c #BCBBBB",
"V c gray",
"C c #C49D8E",
"Z c #FEA596",
"A c #BFC0BF",
"S c #DCC7B1",
"D c #BFBFC0",
"F c gray76",
"G c #C5C5C5",
"H c #C7C8C7",
"J c #CBCBCB",
"K c gray80",
"L c #CFD0D0",
"P c #D2D2D2",
"I c #D4D5D5",
"U c #D8D8D7",
"Y c gray85",
"T c #DBDBDB",
"R c #DBDBDC",
"E c #DFDFDF",
"W c #E2D4C3",
"Q c #DFE0E0",
"! c #E1E1E1",
"~ c #E7E7E7",
"^ c #E8E7E7",
"/ c gray91",
"( c #EEEEEE",
") c #F3F3F3",
"_ c #F6F6F6",
"` c gray98",
"' c gray99",
/* pixels */
"lPvbxMbblsrhhs4:;eO,vh>::,1;PI4Gvs-psVV,;=*4Oih::ereph:kh4e4>&&:",
"l43rispspr3vPEUMrrrJp:;44ereI(Jbbe*rlPPKVv53>p4:err5es43ir;o&=eG",
"erhkhsrrr5&b'`IHVJVF5:,eeirrMMhiv4-4eeifshsskbersyr44pe*erp5:3bb",
"sihkip5pr5&v_sr0eh5lh3erreeevlr=sr>p5rrse45sPlsspre3:4>=kmbr=s(h",
"reihi54spe&VIre43r4enF5>4eriklr=rhre35rss5>vYspire3==*=pJGs4e^/s",
"ee,4irilhe*II54,>esiiJs;:>ilbMs:ehbs54esp4:!vsire4:=&4bPb4ep=~Rh",
"4,34llhkkr=YIrq4>rkl>kv4ehbbhshe:pVbkiesrerIprree;O&i~(hrihhOIPh",
"p::4rpskhe=PJre4:5shr,vsiklhr4ie=G~PPJvbprvsr5e4:X*hIJrrsshi*MPK",
"PMh3=;eir4;IJr5,>4ist;hhGKhr@@@@@@@@@shFi3s3:=**&*4Fsrriirsr=vYI",
"FlFKVp4=;;:GGe434eihs*spkY@@CS77SSSSS@@h43e54534>4sGh4er45rp*lGJ",
"33iBGJKMi,eMverrihhhe*hsh@9CWW77WWWWSCC@=3esFPMs5eVYPVreerriOvGs",
";:>44rMlhipvh4rsskks>;lpr@CSWW77SSWWWWCC@:iPIKs54ekFKKLVe54:;Mb:",
"=;>344ie44ph44rsskkh>5Jl@CCWS777SSSSSWWCC@kVhseeihKVsplPKM,*rhs=",
",:::,,rr5:svvlrripsr4rKK@CWSS777SSSSSSWWC@khprrshhJVVheVFM4eslr3",
"443:,5sh5=kFIVlsepseerAJ@CSS77777SSSSSSWS9lVirrhhsbGbr:sblhsrM33",
"5errrissr,M/)Ekie,e4eelJ@SSS77667SSSSSSSS9vMbiihsssMs>4iFpipsb43",
"4rpsrirsi3KQVFIvp53:risJ@SSS766677SSSSSSS9pbDvpppsphe;rsKi4hJM4:",
"5erpeeeii3GIkhkhVVIYIvsK@SSS667777SSSSSSS9pMFMMiripe,3lMhph4FFb3",
"rsspe4sdh4MMrpgshsVbJhrk@SSS6@@777S###SSS9ssvlVVkre>=esVeebirshs",
"eerpe5hhs4pirsr45essrpre@SSS@C9677S####SS9vpphbbMs3=,skJeekkreKI",
"krerpshhp,4ekh434ep4;er,@CSS@SC677S88  SW9Jirikkie:rpslsrihvh4hQ",
"K5:;;>;;;;3vFs4::4e,&ir5@9SS@S9677S88  SW9Jleeri4;pMMlssiipMJbeh",
"YVprlhr4evKEEe>;;4r4*b443@CS@SC6677YYZZSW9hlcr44=evMMrssppsvMhi,",
")~GFKJJKY/EKG,*=>rhe=h::;@9C6@S6677SYZZSW9,pbh;;rlVbeivhpssei3=,",
"!prikMVGPMisFh4rhlke=shsbG@@66@66667SSSSS@e4hvprsVPpeeblssp;=,h)",
"psrrsvFFksr5hIslFvr4=iR!/I@9++666666SSSSC@er,MhsiVpsirvbir:=lE`G",
"re4rhMlsseih5YVhhh;&:b/bie@9+++66666SSCC@ier;FbbhPheeehh54:,K~Mi",
",44eirrrrerxssV45=>hvKksss@96+6+++++CCC@pe44>FJr4kFGs2:e4e3:J~k4",
",;,e43eeeerMh>hvMh~GlPvrrr@C66++++@@@@@@@@4=sIk5szssMvhs4434FYFk",
"lhre::,errrkp=sJ/_Ve>VIpr@9C77CS777777CC99@4JF,ehssleehVJli5shbv",
"bkpr;&=4rerpe&kIGpee>s(Je@CC77CCS666667C99@kPr>phssp4;hGGMi4rpph",
"hs4p5:,444er&>Vp4ripr:sGs@CC77@@@@@@@@67CC@vh=4rr45*Oevp,;;,vk5p",
"cs;psVV,;=*4Oih::ereph:kh@C777SSSS9bl@66CC@hhs4:;eO,vh>::,1;PI4G",
"be*rlPPKVv53>p4:err5es43i@C776SSS79ris@@@@3vPEUMrrrJp:;44ereI(Jb",
"v4-4eeifshsskbeisyr44pe*e@776SSSS79khsrrr5&b'`IHVJVF5:,eeirrMMhi",
"sr>p5rrse45sPlsspre3:4>=k@776SCS779kip5pr5&v_sr0eh5lh3erreeevlr=",
"rhre35rss5>vYspire3==*=pJ676SSCC779hi54spe&VIre43r4enF5>4erillr=",
"ehbs54esp4:!vsire4:=&4bPb666SSCC76@4irilhe*II54,>esiiJs;:>ilbMs:",
":pVbkiesrerIprree;O&i~(hr66SSSC776@4llhkkr=YIrq4>rkl>kv4ehbbhshe",
"=G~PPJvbprvsr5e4:X*hIJrrs@CSSS776C@4rpskhe=PJre4:5shr,vsiklhr4ie",
"=EkprshFi3s3:=**&*4Fsrri......76...3=;eir4;IJr5,>4isi;hsGKhre:4e",
"=Jhspshh43e54534>4sGh4er.$%%%%66$$.KVp4=;;:GGe434eihs*spkYM53>39",
"=Gsprisr=3esFPMs5eVYPVre.$%%%%%6$$.BGJKMi,eMverrihhhe*hshGss5=33",
">Kprrrr4o:iPIKs54ekFKKLV.$SS%%%%$$.44rMlhipvh4rsskks>;lprirrvi;;",
"sPrreeeo;4kVhseeihKVsplP.9S%%%%$$$.354ie44ph44rsskkh>5Jltei4vvks",
"KJr,>,o=rvkhprrshhJVVheV@C%%$$$$$$..,1rr5:svvlrripsr4rKKirresejM",
"vVk5=&;uvhlVirrhhsbGbr:s@S%$$$..$...15sh5=kFIVlseaseerAJiiirhhr5",
"3rr444rlpsvMbiihsssMs>4.$%$$$.4...C@iissr,M/)Ekie,e4eelJshsripsa",
"e;345pbKhepbDvpppsihe;r.$%$$.M4:.9C@rirsi3KQVFIvp53:risJpsye4rss",
"3&ehlVEYVrpMFMMiripe,3.$$$$$.Fb3@9CC@eeii3GIkhkhVVIYIvsKppr4epss",
"3:GJVqsGGlssvlVVkre>=e.$$$$.rsks@9CC@4sdh4MMrpgshsVbJhrksr44rkls",
"orI`hrprVJvpphbbMs3=,@CSSC.kreKI@99CC@hhs4pirsr45essrprer54eslbs",
";MPMssshiKJirikkie:rp@CCCC.vh4hQ@9999@hhp,4ekh434ep4;er,spiglhh:",
"hEPpspsviiJleeri4;pMM@9CCC@MJbehK@@@@>;-;;3vFs3::4e,&ir5rshhpiro",
"~Yirr5ihs3hlcr44=evMM@99CC@vMhi,YVprlhr4evKEEe>;;4r4*b443rl=&o*e",
"!hrre35pre,pbh;;rlVbei@@@@sei3=,)~GFKJJKY/EKG,*=>rhe=h::;=*=svVP",
"Frre4>3eeee4hvprsVPpeeblssp;=,h)!prikMVGPMisFh4rhlke=shsbGKIYFvV",
"lerr4>4sreet,MhsiVpsirvbir:=lE`GpsrrsvFFksr5hIslFvr4=iR!/Ibr55rv",
"he4e55pkpirr;FbbhPheeehh54;,K~Mire4rhMlsseih5YVhhh;&:b/biee445*h",
"ss:35ephpe44>FJr4kFGs2:e4e3:J~k4,44eirrrrerxssV45=>hvKkssssie4&5",
"pk>,4wrrpe4=sIk5szssMvhs4434FYFk,;,e43eeeerMh>hvMh~GlPvrrrrrpi::",
"Fl4:44eri5;4JF,ehssleehVJli5skbvlhre::,errrkp=sJ/_Ve>VIprre5rre=",
"KFr==;<ee4&kPr>phssp4;hGGMi4rpphbkpr;&=4rerpe&kIGpee>s(Jeee4err=",
"bGhr,>;*&*,vh=4rr45*Oevp,;;,vk5phs4p5:,444er&>Vp4ripr:sGs4eee4r:"
};
